<svg width="1333" height="207" viewBox="0 0 1333 207" fill="none" xmlns="http://www.w3.org/2000/svg">
<path d="M32.4443 124.924C50.2181 124.924 64.6181 110.524 64.6181 92.75C64.6181 74.9761 50.2181 60.5762 32.4443 60.5762C14.6705 60.5762 0.270508 74.9761 0.270508 92.75C0.270508 110.524 14.6705 124.924 32.4443 124.924Z" fill="white"/>
<path fill-rule="evenodd" clip-rule="evenodd" d="M6.40948 101.976H58.5819C59.6331 99.0182 60.171 95.8888 60.1954 92.7594C60.1954 89.6056 59.6331 86.5007 58.5819 83.5425H6.40948C5.35821 86.5007 4.7959 89.6301 4.7959 92.7594C4.82035 95.9133 5.35821 99.0182 6.40948 101.976Z" fill="white"/>
<path fill-rule="evenodd" clip-rule="evenodd" d="M6.39258 83.5017H58.565C56.658 78.0987 53.113 73.4291 48.4434 70.1286C43.7738 66.8281 38.1996 65.0433 32.4788 65.0433C26.7579 65.0433 21.1837 66.8281 16.5141 70.1286C11.8445 73.4291 8.29953 78.1231 6.39258 83.5017Z" fill="#88AAD8"/>
<path fill-rule="evenodd" clip-rule="evenodd" d="M58.5161 101.97H6.39258C8.29953 107.374 11.8201 112.019 16.4897 115.344C21.1593 118.644 26.7334 120.429 32.4543 120.404C38.1752 120.404 43.7494 118.62 48.3945 115.319C53.0886 112.019 56.6091 107.374 58.5161 101.97Z" fill="#88AAD8"/>
<path fill-rule="evenodd" clip-rule="evenodd" d="M32.0664 92.7327L32.3598 100.287C32.3598 100.287 32.3598 100.434 32.4576 100.434C32.5554 100.434 32.5554 100.287 32.5554 100.287L32.8487 92.7327H32.0664Z" fill="#F1C446"/>
<path fill-rule="evenodd" clip-rule="evenodd" d="M32.4664 100.434C32.3686 100.434 32.3442 100.336 32.3442 100.263L32.0508 92.7327H32.0997L32.3686 100.287C32.3686 100.287 32.3686 100.409 32.442 100.409C32.5153 100.409 32.5153 100.287 32.5153 100.287L32.8087 92.7327L32.5642 100.287C32.5886 100.36 32.5886 100.458 32.4664 100.434Z" fill="#87402A"/>
<path fill-rule="evenodd" clip-rule="evenodd" d="M32.2637 92.7327L32.4593 97.9157L32.6548 92.7327H32.2637Z" fill="#87402A"/>
<path fill-rule="evenodd" clip-rule="evenodd" d="M31.7343 95.1744C31.3187 96.1279 31.6609 96.9102 31.2453 97.717C31.0008 98.3038 30.9275 98.9883 31.0497 99.624C31.0497 99.9907 30.7075 100.113 30.7808 100.186C30.8542 100.26 31.1964 100.113 31.3187 99.5996C31.4409 99.0861 31.1475 98.7927 31.6609 97.7904C32.1744 96.788 31.7832 96.299 32.2966 95.37L31.7343 95.1744Z" fill="#F1C446"/>
<path fill-rule="evenodd" clip-rule="evenodd" d="M30.8849 100.235H30.7627C30.7627 100.186 30.7627 100.137 30.836 100.064C30.9583 99.9418 31.0316 99.7951 31.0316 99.6484C31.0316 99.5262 31.0316 99.404 31.0316 99.2817C30.9338 98.7683 31.0072 98.2304 31.2517 97.7415C31.4228 97.3503 31.4961 96.9347 31.4961 96.5191C31.4717 96.0545 31.5695 95.6145 31.7651 95.1744C31.5939 95.5901 31.5206 96.0546 31.5206 96.4946C31.5206 96.9102 31.4473 97.3259 31.2761 97.717C31.0561 98.1815 30.9583 98.7194 31.0561 99.2328C31.0561 99.355 31.0561 99.4773 31.0561 99.5995C31.0316 99.7707 30.9583 99.9174 30.836 100.04C30.7627 100.113 30.7627 100.137 30.7627 100.137C30.9583 100.137 31.1783 99.9418 31.2517 99.5506C31.2761 99.404 31.2761 99.2328 31.2517 99.0861C31.2028 98.6216 31.325 98.1326 31.5695 97.7415C31.7651 97.3747 31.8629 96.9591 31.8873 96.5191C31.8873 96.1034 32.0096 95.7123 32.2051 95.3456C32.034 95.7123 31.9362 96.1034 31.9362 96.5191C31.9118 96.9591 31.814 97.3748 31.6184 97.7659C31.3739 98.1571 31.2761 98.6216 31.3006 99.0861C31.325 99.2573 31.325 99.4284 31.3006 99.5751C31.2761 99.6973 31.2272 99.844 31.1539 99.9418C31.0805 100.04 30.9583 100.137 30.836 100.186L30.8849 100.235Z" fill="#87402A"/>
<path fill-rule="evenodd" clip-rule="evenodd" d="M31.8834 95.4115C31.5412 96.365 31.8834 97.0251 31.4434 97.8319C31.9568 97.2451 31.6145 96.5117 32.0546 95.5337L31.8834 95.4115Z" fill="#87402A"/>
<path fill-rule="evenodd" clip-rule="evenodd" d="M32.8331 92.7285L32.5397 85.1985C32.5397 85.1985 32.5397 85.0518 32.442 85.0518C32.3442 85.0518 32.3442 85.1985 32.3442 85.1985L32.0508 92.7285H32.8331Z" fill="#F1C446"/>
<path fill-rule="evenodd" clip-rule="evenodd" d="M32.8086 92.73L32.5152 85.1755C32.5152 85.1755 32.5152 85.0533 32.4419 85.0533C32.3685 85.0533 32.3685 85.1755 32.3685 85.1755L32.0996 92.73L32.3441 85.1755C32.3441 85.1022 32.3441 85.0044 32.4663 85.0044C32.5886 85.0044 32.5886 85.1266 32.5886 85.1755L32.8819 92.7056L32.8086 92.73Z" fill="#87402A"/>
<path fill-rule="evenodd" clip-rule="evenodd" d="M32.6324 92.7312L32.4368 87.5726L32.2412 92.7312H32.6324Z" fill="#87402A"/>
<path fill-rule="evenodd" clip-rule="evenodd" d="M33.1736 90.2856C33.5892 89.3321 33.2469 88.5742 33.6625 87.743C33.907 87.1562 33.9804 86.4961 33.8581 85.8604C33.8581 85.4937 34.2004 85.3715 34.127 85.2737C34.0292 85.1759 33.7359 85.3715 33.6136 85.8604C33.4914 86.3494 33.7848 86.6673 33.2714 87.6696C32.7579 88.672 33.1736 89.1365 32.6602 90.09L33.1736 90.2856Z" fill="#F1C446"/>
<path fill-rule="evenodd" clip-rule="evenodd" d="M33.195 90.3101C33.3661 89.8944 33.4395 89.4543 33.4395 88.9898C33.415 88.5498 33.5128 88.1342 33.684 87.743C33.904 87.2785 33.9774 86.7406 33.8796 86.2272C33.8796 86.0805 33.8796 85.9583 33.8796 85.8605C33.904 85.6893 33.9774 85.5182 34.0996 85.396C34.1485 85.3226 34.1729 85.2982 34.1485 85.2982C33.9774 85.2982 33.7573 85.4938 33.6595 85.8849C33.6351 86.0316 33.6351 86.2028 33.6595 86.3495C33.684 86.814 33.5862 87.2785 33.3417 87.6941C33.1461 88.0608 33.0483 88.5009 33.0239 88.9165C33.0239 89.3321 32.9261 89.7233 32.7061 90.0656C32.8772 89.6988 32.975 89.3077 32.975 88.8921C32.975 88.452 33.0972 88.0364 33.2928 87.6696C33.5373 87.2785 33.6351 86.814 33.6106 86.3495C33.5862 86.2028 33.5862 86.0316 33.6106 85.8849C33.7084 85.4693 33.9285 85.2737 34.0751 85.2493H34.1729C34.1729 85.2982 34.1729 85.3471 34.0996 85.4204C33.9774 85.5427 33.9285 85.6893 33.904 85.836C33.904 85.9583 33.904 86.0805 33.904 86.2027C34.0018 86.7162 33.9285 87.254 33.684 87.743C33.5128 88.1342 33.415 88.5498 33.4395 88.9654C33.4639 89.4299 33.3661 89.87 33.195 90.3101Z" fill="#87402A"/>
<path fill-rule="evenodd" clip-rule="evenodd" d="M33.052 90.0625C33.3943 89.109 33.052 88.4978 33.4921 87.691C32.9787 88.2533 33.2965 89.0113 32.8809 89.9647L33.052 90.0625Z" fill="#87402A"/>
<path fill-rule="evenodd" clip-rule="evenodd" d="M32.4668 92.3534L24.9123 92.6223C24.9123 92.6223 24.7656 92.6223 24.7656 92.7201C24.7656 92.8179 24.9123 92.8179 24.9123 92.8179L32.4668 93.0868V92.3534Z" fill="#F1C446"/>
<path fill-rule="evenodd" clip-rule="evenodd" d="M32.4756 93.1113L24.9211 92.8668C24.8722 92.8668 24.75 92.8668 24.75 92.7446C24.75 92.6223 24.8722 92.6468 24.9211 92.6468L32.4756 92.3534V92.4023L24.9211 92.6712C24.9211 92.6712 24.7989 92.6712 24.7989 92.7446C24.7989 92.8179 24.9211 92.8179 24.9211 92.8179L32.4756 93.1113Z" fill="#87402A"/>
<path fill-rule="evenodd" clip-rule="evenodd" d="M32.4379 92.5509L27.2549 92.7465L32.4379 92.9421V92.5509Z" fill="#87402A"/>
<path fill-rule="evenodd" clip-rule="evenodd" d="M30.0246 92.0132C29.0712 91.5732 28.3133 91.9399 27.482 91.5243C26.8708 91.2798 26.2107 91.2064 25.5751 91.3287C25.2083 91.3287 25.0861 90.9864 24.9883 91.0597C24.8905 91.1575 25.0861 91.4509 25.5751 91.5732C26.064 91.6954 26.3819 91.402 27.3842 91.9154C28.3866 92.4289 28.8756 92.0377 29.8046 92.5511L30.0246 92.0132Z" fill="#F1C446"/>
<path fill-rule="evenodd" clip-rule="evenodd" d="M29.8037 92.5532C29.4369 92.3821 29.0458 92.3087 28.6301 92.2843C28.1901 92.2843 27.7745 92.162 27.3833 91.9664C26.9921 91.722 26.5276 91.6242 26.0631 91.6486C25.892 91.6731 25.7453 91.6486 25.5741 91.5997C25.2074 91.5019 24.9874 91.3063 24.9385 91.1597V91.0619C25.0118 91.013 25.0607 91.0619 25.1096 91.1108C25.2074 91.233 25.3785 91.3064 25.5252 91.3064C25.6475 91.3064 25.7697 91.3064 25.892 91.3064C26.4054 91.2086 26.9677 91.2819 27.4322 91.5264C27.7989 91.6975 28.239 91.7953 28.6546 91.7709C29.1191 91.7464 29.5592 91.8442 29.9748 92.0154V92.0643C29.5592 91.8931 29.1191 91.7953 28.6546 91.8198C28.239 91.8442 27.7989 91.7709 27.4077 91.5753C26.9432 91.3308 26.4054 91.2575 25.892 91.3552H25.5252C25.3541 91.3308 25.2074 91.2575 25.0852 91.1352C25.0363 91.0863 25.0118 91.0619 24.9874 91.0863C24.9874 91.2819 25.183 91.4775 25.5741 91.5753C25.7208 91.5998 25.8919 91.5998 26.0386 91.5753C26.5032 91.5264 26.9677 91.6486 27.3833 91.8931C27.7745 92.0887 28.1901 92.1865 28.6057 92.2109C29.0213 92.2354 29.4369 92.3332 29.8037 92.5532Z" fill="#87402A"/>
<path fill-rule="evenodd" clip-rule="evenodd" d="M29.7446 92.1447C28.7911 91.8269 28.1799 92.1447 27.3242 91.7291C27.911 92.2425 28.6444 91.9003 29.6223 92.3403L29.7446 92.1447Z" fill="#87402A"/>
<path fill-rule="evenodd" clip-rule="evenodd" d="M32.4697 93.1113L39.9998 92.8423C39.9998 92.8423 40.1464 92.8424 40.1464 92.7446C40.1464 92.6468 39.9998 92.6468 39.9998 92.6468L32.4697 92.3534V93.1113Z" fill="#F1C446"/>
<path fill-rule="evenodd" clip-rule="evenodd" d="M32.4697 93.1185L39.9998 92.8251C39.9998 92.8251 40.122 92.8251 40.122 92.7518C40.122 92.6784 39.9998 92.6784 39.9998 92.6784L32.4697 92.385L39.9998 92.6295C40.0487 92.6295 40.1709 92.6295 40.1709 92.7273C40.1709 92.8251 40.0487 92.8495 39.9998 92.8495L32.4697 93.1185Z" fill="#87402A"/>
<path fill-rule="evenodd" clip-rule="evenodd" d="M32.4463 92.9184L37.6293 92.7228L32.4463 92.5272V92.9184Z" fill="#87402A"/>
<path fill-rule="evenodd" clip-rule="evenodd" d="M34.8867 93.461C35.8402 93.901 36.6225 93.5344 37.4538 93.95C38.0405 94.1945 38.7006 94.2678 39.3363 94.1455C39.703 94.1455 39.8252 94.4878 39.8986 94.4145C39.9964 94.3411 39.8008 94.0233 39.3118 93.8766C38.7984 93.7544 38.505 94.0477 37.5027 93.5343C36.5003 93.0209 36.0113 93.4121 35.0823 92.8987L34.8867 93.461Z" fill="#F1C446"/>
<path fill-rule="evenodd" clip-rule="evenodd" d="M39.8741 94.4444C39.8497 94.4444 39.8252 94.4444 39.8008 94.42C39.7763 94.3955 39.7519 94.3956 39.7519 94.3711C39.703 94.3222 39.6297 94.2733 39.5563 94.2244C39.483 94.1999 39.4096 94.1755 39.3363 94.1755C39.214 94.1511 39.0918 94.1511 38.9696 94.1755C38.4561 94.2733 37.9183 94.1755 37.4293 93.9555C37.0382 93.7844 36.6225 93.6865 36.2069 93.711C35.7424 93.711 35.3023 93.6376 34.8867 93.4665V93.4176C35.3023 93.5888 35.7424 93.6865 36.1825 93.6621C36.6225 93.6376 37.0382 93.7354 37.4293 93.931C37.8938 94.151 38.4072 94.2244 38.9207 94.151C39.0429 94.151 39.1651 94.151 39.2874 94.151C39.4585 94.1755 39.6297 94.2489 39.7275 94.3711C39.8008 94.42 39.8252 94.4444 39.8252 94.42C39.8252 94.2244 39.6297 94.0288 39.2629 93.931C39.1163 93.9066 38.9451 93.9066 38.7984 93.931C38.3339 93.9799 37.8449 93.8577 37.4538 93.6132C37.0871 93.4176 36.6714 93.3198 36.2558 93.2954C35.8402 93.2954 35.449 93.1731 35.0823 92.9775C35.449 93.1487 35.8402 93.2465 36.2558 93.2465C36.6959 93.2709 37.1115 93.3687 37.5027 93.5643C37.8938 93.8088 38.3584 93.9066 38.8229 93.8821C38.994 93.8577 39.1407 93.8577 39.3118 93.8821C39.4341 93.9066 39.5808 93.9555 39.6786 94.0288C39.7763 94.1022 39.8741 94.2244 39.923 94.3466L39.8741 94.4444Z" fill="#87402A"/>
<path fill-rule="evenodd" clip-rule="evenodd" d="M35.1338 93.3226C36.0873 93.6649 36.7474 93.3226 37.5542 93.7627C36.9919 93.2737 36.234 93.5916 35.256 93.1515L35.1338 93.3226Z" fill="#87402A"/>
<path fill-rule="evenodd" clip-rule="evenodd" d="M32.1473 92.4561L27.0132 97.9813C27.0132 97.9813 26.9154 98.0791 27.0132 98.1524C27.111 98.2258 27.1843 98.1524 27.1843 98.1524L32.7096 93.0184L32.1473 92.4561Z" fill="#F1C446"/>
<path fill-rule="evenodd" clip-rule="evenodd" d="M27.0655 98.2258C27.0411 98.2014 27.0411 98.2014 27.0166 98.1769C27.0166 98.1525 26.9922 98.128 26.9922 98.1036C26.9922 98.0791 26.9922 98.0547 27.0166 98.0302C27.0166 98.0058 27.0411 97.9813 27.0655 97.9813C27.0655 97.9813 26.9922 98.0791 27.0655 98.128C27.1389 98.1769 27.2122 98.128 27.2122 98.128L32.7375 92.9939L27.2367 98.1524C27.1878 98.1769 27.1633 98.2014 27.09 98.2258" fill="#87402A"/>
<path fill-rule="evenodd" clip-rule="evenodd" d="M32.3233 92.5983L28.8027 96.3877L32.5922 92.8672L32.3233 92.5983Z" fill="#87402A"/>
<path fill-rule="evenodd" clip-rule="evenodd" d="M30.21 93.9338C29.232 94.3006 28.9387 95.1074 28.0585 95.4007C27.4473 95.6452 26.9339 96.0608 26.5916 96.5987C26.2983 96.8432 26.0049 96.6965 26.0049 96.8187C26.0049 96.941 26.3472 97.0388 26.8117 96.7698C27.2762 96.5009 27.2273 96.0853 28.3275 95.743C29.4032 95.4007 29.4521 94.7651 30.4544 94.4961L30.21 93.9338Z" fill="#F1C446"/>
<path fill-rule="evenodd" clip-rule="evenodd" d="M26.2602 96.9899C26.1868 96.9899 26.1135 96.9898 26.0401 96.941L25.9668 96.8432C25.9668 96.7698 26.0401 96.7698 26.1135 96.7698C26.2846 96.7698 26.4313 96.6965 26.5536 96.5987C26.6513 96.5253 26.7247 96.4275 26.7736 96.3297C27.0914 95.8897 27.5315 95.5719 28.0204 95.3763C28.4116 95.2296 28.7783 95.0096 29.0473 94.6917C29.3651 94.3495 29.7318 94.105 30.1719 93.9338C29.7563 94.105 29.3895 94.3739 29.0717 94.6917C28.7783 95.0096 28.4116 95.2296 28.0204 95.3763C27.5315 95.5474 27.0914 95.8652 26.798 96.3053C26.7247 96.4031 26.6513 96.5009 26.5536 96.5742C26.4313 96.6965 26.2602 96.7454 26.089 96.7454C26.0157 96.7454 25.9913 96.7454 25.9913 96.7454C26.1135 96.8187 26.2357 96.8432 26.3824 96.8187C26.5047 96.8187 26.6513 96.7454 26.7491 96.672C26.8958 96.5987 27.0181 96.4765 27.1159 96.3542C27.4337 95.9875 27.8249 95.743 28.2894 95.6208C28.6805 95.4985 29.0473 95.2785 29.3651 94.9851C29.6585 94.6918 30.0252 94.4962 30.4164 94.3739C30.0252 94.5206 29.6829 94.7162 29.3895 95.0096C29.0717 95.3029 28.705 95.523 28.2894 95.6697C27.8493 95.7919 27.4337 96.0364 27.1403 96.3787C27.0425 96.5009 26.9203 96.5987 26.7736 96.6965C26.6025 96.7943 26.4313 96.8676 26.2357 96.8676" fill="#87402A"/>
<path fill-rule="evenodd" clip-rule="evenodd" d="M30.1434 94.2183C29.2388 94.6339 29.0432 95.3429 28.1631 95.5874C28.921 95.5385 29.2144 94.7806 30.2167 94.4139L30.1434 94.2183Z" fill="#87402A"/>
<path fill-rule="evenodd" clip-rule="evenodd" d="M32.7313 92.9903L37.8654 87.4651C37.8654 87.4651 37.9632 87.3673 37.8654 87.2939C37.7676 87.2451 37.6942 87.2939 37.6942 87.2939L32.1689 92.4525L32.7313 92.9903Z" fill="#F1C446"/>
<path fill-rule="evenodd" clip-rule="evenodd" d="M32.7323 93.0199L37.8664 87.4702C37.8664 87.4702 37.9397 87.3968 37.8664 87.3479C37.793 87.299 37.7197 87.3479 37.7197 87.3479L32.1455 92.4821L37.6708 87.3235C37.6708 87.3235 37.793 87.2257 37.8664 87.3235C37.9397 87.4213 37.8664 87.4946 37.8664 87.5191L32.7323 93.0199Z" fill="#87402A"/>
<path fill-rule="evenodd" clip-rule="evenodd" d="M32.5805 92.8792L36.101 89.0897L32.2871 92.6103L32.5805 92.8792Z" fill="#87402A"/>
<path fill-rule="evenodd" clip-rule="evenodd" d="M34.6966 91.5048C35.6746 91.138 35.9435 90.3312 36.8481 90.0379C37.4348 89.7934 37.9482 89.3778 38.315 88.8399C38.6083 88.5954 38.9017 88.7421 38.9017 88.6199C38.9017 88.4976 38.5594 88.3998 38.0949 88.6688C37.6304 88.9377 37.6549 89.3533 36.5791 89.6956C35.5034 90.0379 35.4545 90.6735 34.4521 90.9424L34.6966 91.5048Z" fill="#F1C446"/>
<path fill-rule="evenodd" clip-rule="evenodd" d="M34.6966 91.5042V91.4553C35.1122 91.2842 35.479 91.0397 35.7968 90.6974C36.0902 90.3796 36.4569 90.1351 36.8481 89.9884C37.337 89.8173 37.7771 89.4995 38.0705 89.0594C38.1438 88.9616 38.2172 88.8638 38.315 88.766C38.4372 88.6438 38.6083 88.5949 38.7795 88.5949C38.8528 88.5949 38.9017 88.5949 38.9017 88.5949C38.7795 88.5215 38.6328 88.4971 38.4861 88.4971C38.3394 88.5215 38.2172 88.5704 38.0949 88.6682C37.9727 88.7416 37.8504 88.8638 37.7526 88.986C37.4348 89.3527 37.0437 89.5972 36.5791 89.7195C36.1635 89.8417 35.7968 90.0618 35.479 90.3552C35.1856 90.6485 34.8433 90.8441 34.4521 90.9664C34.8189 90.8197 35.1856 90.5996 35.4545 90.3307C35.7723 90.0373 36.1391 89.8173 36.5547 89.695C36.9948 89.5728 37.3859 89.3283 37.7037 88.986C37.8015 88.8638 37.9238 88.7416 38.0705 88.6682C38.1683 88.5949 38.315 88.546 38.4372 88.5215C38.5594 88.4971 38.7061 88.5215 38.8284 88.546L38.9017 88.6438C38.9017 88.7171 38.8284 88.7171 38.7306 88.7171C38.5839 88.7171 38.4127 88.766 38.2905 88.8638C38.1927 88.9616 38.1194 89.0349 38.046 89.1572C37.7527 89.5972 37.3126 89.9151 36.8236 90.0862C36.4325 90.2329 36.0657 90.4774 35.7724 90.7708C35.4545 91.113 35.0878 91.382 34.6477 91.5776" fill="#87402A"/>
<path fill-rule="evenodd" clip-rule="evenodd" d="M34.7648 91.2648C35.6693 90.8248 35.8649 90.1402 36.7451 89.8958C35.9872 89.9446 35.6938 90.7025 34.6914 91.0693L34.7648 91.2648Z" fill="#87402A"/>
<path fill-rule="evenodd" clip-rule="evenodd" d="M32.7367 92.4576L27.2114 87.3235C27.2114 87.3235 27.1136 87.2257 27.0403 87.3235C26.9914 87.4213 27.0403 87.4946 27.0403 87.4946L32.1744 93.0199L32.7367 92.4576Z" fill="#F1C446"/>
<path fill-rule="evenodd" clip-rule="evenodd" d="M32.1962 92.9933L27.0132 87.4924C27.0132 87.4924 26.9154 87.3458 27.0132 87.2969C27.111 87.248 27.1843 87.2969 27.2088 87.2969C27.2088 87.2969 27.111 87.2235 27.0621 87.2969C27.0132 87.3702 27.0621 87.4191 27.0621 87.4191L32.1962 92.9933Z" fill="#87402A"/>
<path fill-rule="evenodd" clip-rule="evenodd" d="M32.5932 92.6103L28.7793 89.0897L32.2998 92.8792L32.5932 92.6103Z" fill="#87402A"/>
<path fill-rule="evenodd" clip-rule="evenodd" d="M31.2342 90.5065C30.892 89.5286 30.0607 89.2352 29.7674 88.3551C29.5229 87.7439 29.1073 87.2305 28.5694 86.8882C28.3249 86.5948 28.4716 86.3014 28.3494 86.3014C28.2271 86.277 28.1293 86.6437 28.3983 87.1082C28.6672 87.5483 29.0828 87.5483 29.4495 88.6485C29.7918 89.7486 30.403 89.7731 30.6964 90.7755L31.2342 90.5065Z" fill="#F1C446"/>
<path fill-rule="evenodd" clip-rule="evenodd" d="M30.6996 90.7198C30.5529 90.3286 30.3329 89.9863 30.0639 89.6929C29.7706 89.3751 29.5505 89.0084 29.4283 88.5928C29.306 88.1527 29.0616 87.7371 28.6948 87.4437C28.5726 87.3459 28.4504 87.2237 28.377 87.1014C28.2792 86.9792 28.2303 86.857 28.2059 86.7103C28.1814 86.5636 28.2059 86.4169 28.2548 86.2947L28.3526 86.2213C28.4259 86.2213 28.4259 86.2946 28.4259 86.3924C28.4259 86.5636 28.4748 86.7103 28.5726 86.8325C28.6704 86.9303 28.7682 87.0036 28.866 87.077C29.306 87.3704 29.6239 87.8104 29.795 88.2994C29.9417 88.6906 30.1862 89.0573 30.4796 89.3262C30.8218 89.644 31.0908 90.0352 31.2863 90.4508H31.2374C31.0663 90.0352 30.8218 89.6685 30.4796 89.3751C30.1617 89.0817 29.9417 88.715 29.7706 88.2994C29.5994 87.8104 29.2816 87.3948 28.866 87.1014C28.7682 87.0037 28.6459 86.9303 28.5726 86.857C28.4748 86.7103 28.4259 86.5636 28.4015 86.3924C28.4015 86.3191 28.4015 86.2702 28.3526 86.2702C28.2792 86.3924 28.2548 86.5391 28.2548 86.6858C28.2548 86.8325 28.3281 86.9792 28.4015 87.077C28.4993 87.1992 28.597 87.3215 28.7193 87.4192C29.0616 87.7371 29.3305 88.1527 29.4527 88.5928C29.575 89.0084 29.795 89.3751 30.0884 89.6929C30.3818 89.9863 30.6018 90.353 30.6996 90.7442" fill="#87402A"/>
<path fill-rule="evenodd" clip-rule="evenodd" d="M30.9785 90.43C30.5384 89.5254 29.8539 89.3298 29.585 88.4497C29.6339 89.2076 30.3918 89.501 30.7829 90.5033L30.9785 90.43Z" fill="#87402A"/>
<path fill-rule="evenodd" clip-rule="evenodd" d="M32.1455 92.9948L37.6708 98.1289C37.6708 98.1289 37.7686 98.2267 37.8419 98.1289C37.9153 98.0311 37.8419 97.9578 37.8419 97.9578L32.7078 92.4325L32.1455 92.9948Z" fill="#F1C446"/>
<path fill-rule="evenodd" clip-rule="evenodd" d="M37.8409 98.1763C37.792 98.2007 37.7676 98.2007 37.7187 98.1763L32.1689 93.0177L37.7187 98.1518C37.7187 98.1518 37.792 98.2496 37.8654 98.1518C37.9143 98.054 37.8654 98.0051 37.8654 98.0051L32.7313 92.4799L37.8898 97.9563C37.8898 98.0052 37.9876 98.1029 37.8898 98.1518H37.8165" fill="#87402A"/>
<path fill-rule="evenodd" clip-rule="evenodd" d="M32.3203 92.8672L36.1342 96.3877L32.6137 92.5983L32.3203 92.8672Z" fill="#87402A"/>
<path fill-rule="evenodd" clip-rule="evenodd" d="M33.6631 94.9764C34.0298 95.9544 34.8366 96.2233 35.1055 97.1278C35.35 97.7146 35.7656 98.228 36.3035 98.5947C36.5724 98.8881 36.4013 99.1815 36.5235 99.1815C36.6458 99.1815 36.768 98.8392 36.4746 98.3747C36.2057 97.9102 35.7901 97.9346 35.4478 96.8589C35.1055 95.7832 34.4699 95.7343 34.2009 94.7319L33.6631 94.9764Z" fill="#F1C446"/>
<path fill-rule="evenodd" clip-rule="evenodd" d="M36.548 99.2117C36.4746 99.2117 36.4746 99.1139 36.4502 99.0406C36.4502 98.8694 36.4013 98.7227 36.3035 98.6005C36.2301 98.5272 36.1323 98.4294 36.0346 98.356C35.5945 98.0626 35.2767 97.6226 35.1055 97.1336C34.9588 96.7424 34.7144 96.3757 34.421 96.1068C34.1031 95.789 33.8342 95.4222 33.6631 95.0066H33.712C33.8831 95.4222 34.1276 95.789 34.4699 96.1068C34.7877 96.4002 35.0322 96.7669 35.1789 97.1581C35.35 97.647 35.6678 98.0627 36.1079 98.3805C36.2057 98.4538 36.3035 98.5271 36.4013 98.6249C36.5235 98.7472 36.5724 98.9183 36.5724 99.0895C36.4991 99.1873 36.4991 99.2117 36.548 99.2117C36.6702 99.065 36.6947 98.7961 36.4746 98.4538C36.4013 98.3316 36.279 98.2093 36.1568 98.1116C35.7901 97.7937 35.5456 97.4025 35.4233 96.938C35.3011 96.5224 35.0811 96.1557 34.7877 95.8623C34.4943 95.5689 34.2987 95.2022 34.2009 94.811C34.3476 95.2022 34.5432 95.5445 34.8366 95.8379C35.13 96.1557 35.35 96.5224 35.4722 96.938C35.5945 97.3781 35.839 97.7937 36.1812 98.0871C36.3035 98.1849 36.4257 98.3071 36.4991 98.4538C36.5969 98.5761 36.6458 98.6983 36.6702 98.845C36.6947 98.9917 36.6702 99.1384 36.6213 99.2606L36.548 99.2117Z" fill="#87402A"/>
<path fill-rule="evenodd" clip-rule="evenodd" d="M33.9326 95.0503C34.3482 95.9549 35.0572 96.1504 35.3017 97.0306C35.2528 96.2238 34.4949 95.9793 34.1038 94.9769L33.9326 95.0503Z" fill="#87402A"/>
<path fill-rule="evenodd" clip-rule="evenodd" d="M32.1045 92.5825L29.4885 99.6725C29.4885 99.6725 29.4396 99.7947 29.4885 99.8436C29.5374 99.8925 29.6352 99.7458 29.6352 99.7458L32.7646 92.8759L32.1045 92.5825Z" fill="#F1C446"/>
<path fill-rule="evenodd" clip-rule="evenodd" d="M29.5777 99.8594C29.431 99.8105 29.431 99.7127 29.4555 99.6638L32.0714 92.5983H32.1203L29.5044 99.6638C29.5044 99.6638 29.5044 99.786 29.5044 99.8105L29.6266 99.7127L32.7804 92.8427L29.6755 99.7371C29.6266 99.786 29.6022 99.8105 29.5777 99.8594Z" fill="#87402A"/>
<path fill-rule="evenodd" clip-rule="evenodd" d="M32.2965 92.6774L30.4873 97.5181L32.6387 92.7996L32.2965 92.6774Z" fill="#87402A"/>
<path fill-rule="evenodd" clip-rule="evenodd" d="M30.849 94.7319C30.0911 95.4409 30.14 96.3455 29.4066 96.9078C28.942 97.3723 28.6242 97.9591 28.502 98.5703C28.3308 98.9126 28.013 98.8881 28.0375 99.0104C28.0864 99.1326 28.4531 99.0837 28.7465 98.6681C29.0398 98.2525 28.8931 97.8613 29.7733 97.1278C30.6534 96.3944 30.4334 95.8077 31.2646 95.172L30.849 94.7319Z" fill="#F1C446"/>
<path fill-rule="evenodd" clip-rule="evenodd" d="M28.1808 99.0599L28.083 98.9866C28.083 98.9377 28.1319 98.8888 28.2053 98.8643C28.3519 98.791 28.4742 98.6932 28.5475 98.5465C28.5964 98.4242 28.6453 98.3264 28.6698 98.2042C28.792 97.6908 29.0609 97.2263 29.4766 96.884C29.7944 96.5906 30.0144 96.2239 30.1856 95.8327C30.3567 95.4171 30.6012 95.026 30.919 94.7081C30.6012 95.026 30.3567 95.3927 30.1856 95.8083C30.0389 96.1995 29.7944 96.5662 29.4766 96.8595C29.0854 97.2018 28.792 97.6664 28.6698 98.1798C28.6453 98.302 28.5964 98.4242 28.5475 98.522C28.4742 98.6687 28.3275 98.791 28.1808 98.8643C28.1075 98.8643 28.083 98.9132 28.083 98.9377C28.2786 98.9865 28.5231 98.9377 28.7676 98.5954C28.8654 98.4731 28.9387 98.3265 28.9631 98.1798C29.1098 97.7397 29.4032 97.3485 29.7699 97.0551C30.0878 96.7862 30.3567 96.4439 30.5278 96.0527C30.699 95.686 30.9435 95.3438 31.2613 95.0993C30.9679 95.3682 30.7234 95.7105 30.5523 96.0772C30.3567 96.4684 30.0878 96.8351 29.7455 97.104C29.3788 97.3974 29.0854 97.7641 28.9387 98.2042C28.8898 98.3509 28.8165 98.4976 28.7187 98.6443C28.6698 98.7421 28.5964 98.8399 28.4986 98.9132C28.4008 98.9866 28.303 99.0355 28.1808 99.0599Z" fill="#87402A"/>
<path fill-rule="evenodd" clip-rule="evenodd" d="M30.9052 95.0085C30.2206 95.742 30.3184 96.451 29.585 97.0133C30.2695 96.6955 30.2451 95.8642 31.0274 95.1308L30.9052 95.0085Z" fill="#87402A"/>
<path fill-rule="evenodd" clip-rule="evenodd" d="M32.8086 92.8764L35.449 85.8109C35.449 85.8109 35.4979 85.6642 35.4001 85.6397C35.3023 85.6153 35.2534 85.7375 35.2534 85.7375L32.0996 92.6074L32.8086 92.8764Z" fill="#F1C446"/>
<path fill-rule="evenodd" clip-rule="evenodd" d="M32.8301 92.8731H32.7812L35.3971 85.8076C35.3971 85.8076 35.446 85.7098 35.3971 85.6854L35.2749 85.7587L32.1455 92.6042L35.2504 85.7343C35.2749 85.6854 35.2993 85.6609 35.3482 85.6365L35.4949 85.6854C35.5194 85.7343 35.5194 85.7832 35.4949 85.8321L32.8301 92.8731Z" fill="#87402A"/>
<path fill-rule="evenodd" clip-rule="evenodd" d="M32.6294 92.8005L34.4385 87.9597L32.2871 92.6782L32.6294 92.8005Z" fill="#87402A"/>
<path fill-rule="evenodd" clip-rule="evenodd" d="M34.0475 90.7471C34.8054 90.0381 34.7565 89.1335 35.4899 88.5712C35.9544 88.1067 36.2722 87.5444 36.3945 86.9087C36.5901 86.5665 36.9079 86.5909 36.859 86.4931C36.8101 86.3709 36.4434 86.4198 36.15 86.8354C35.8322 87.251 36.0033 87.6421 35.1232 88.3756C34.243 89.109 34.4631 89.6958 33.6318 90.3315L34.0475 90.7471Z" fill="#F1C446"/>
<path fill-rule="evenodd" clip-rule="evenodd" d="M34.0532 90.7706C34.3711 90.4528 34.6156 90.0616 34.7867 89.646C34.9334 89.2303 35.1779 88.8881 35.4957 88.5947C35.9113 88.2524 36.1802 87.7879 36.3025 87.2745C36.3269 87.1522 36.3758 87.03 36.4247 86.9322C36.4981 86.7855 36.6448 86.6633 36.7914 86.5899C36.8648 86.5899 36.9137 86.541 36.8892 86.5166C36.6937 86.4677 36.4492 86.5166 36.2047 86.8589C36.1069 86.9811 36.0336 87.1278 35.9847 87.2745C35.838 87.7146 35.569 88.1302 35.1779 88.3991C34.86 88.668 34.5911 89.0103 34.42 89.4015C34.2733 89.7682 34.0043 90.1105 33.6865 90.355C33.9799 90.086 34.2244 89.7438 34.3955 89.4015C34.5667 89.0103 34.8111 88.668 35.1534 88.3746C35.5201 88.1057 35.8135 87.7146 35.9602 87.2745C36.0091 87.1278 36.0824 86.9811 36.1802 86.8344C36.2536 86.7122 36.3514 86.6144 36.4492 86.541C36.5714 86.4677 36.6937 86.4188 36.8159 86.4188L36.9137 86.4922C36.9137 86.5655 36.8648 86.59 36.7914 86.6388C36.6448 86.6877 36.5225 86.81 36.4492 86.9567C36.4003 87.0789 36.3514 87.1767 36.3269 87.299C36.2047 87.8124 35.9358 88.2769 35.5201 88.6191C35.2023 88.9125 34.9823 89.2548 34.8111 89.646C34.64 90.0616 34.3955 90.4528 34.0777 90.7706" fill="#87402A"/>
<path fill-rule="evenodd" clip-rule="evenodd" d="M34.0295 90.4789C34.714 89.7454 34.6162 89.012 35.3497 88.4497C34.6651 88.792 34.6651 89.5987 33.9072 90.3322L34.0295 90.4789Z" fill="#87402A"/>
<path fill-rule="evenodd" clip-rule="evenodd" d="M32.5962 92.392L25.5307 89.7516C25.5307 89.7516 25.4085 89.7027 25.3596 89.7516C25.3107 89.8005 25.4574 89.8983 25.4574 89.8983L32.3029 93.0521L32.5962 92.392Z" fill="#F1C446"/>
<path fill-rule="evenodd" clip-rule="evenodd" d="M25.4523 89.964C25.4034 89.964 25.3056 89.8661 25.33 89.7928C25.3545 89.7195 25.4767 89.7195 25.5256 89.7928L32.5911 92.4088V92.4577L25.5012 89.8417C25.5012 89.8417 25.3789 89.7928 25.3545 89.8417C25.33 89.8906 25.4523 89.964 25.4523 89.964Z" fill="#87402A"/>
<path fill-rule="evenodd" clip-rule="evenodd" d="M32.5136 92.5584L27.6484 90.7493L32.3669 92.9252L32.5136 92.5584Z" fill="#87402A"/>
<path fill-rule="evenodd" clip-rule="evenodd" d="M30.4864 91.1395C29.7774 90.3327 28.9217 90.4305 28.3105 89.6971C27.846 89.2325 27.2592 88.9392 26.648 88.7925C26.3057 88.6214 26.3302 88.2791 26.208 88.328C26.0857 88.3769 26.1346 88.7436 26.5502 89.0614C26.9658 89.3793 27.357 89.2081 28.0905 90.0638C28.8239 90.9439 29.4107 90.7239 30.0463 91.5551L30.4864 91.1395Z" fill="#F1C446"/>
<path fill-rule="evenodd" clip-rule="evenodd" d="M30.067 91.5574C29.7981 91.264 29.4558 91.0196 29.0891 90.8484C28.6979 90.6528 28.3556 90.3839 28.0867 90.0416C27.8178 89.6749 27.4266 89.3815 26.9866 89.2348C26.8399 89.2104 26.6932 89.1615 26.5465 89.0882C26.4242 89.0148 26.3264 88.917 26.2531 88.8192C26.1798 88.697 26.1309 88.5747 26.1309 88.428L26.2042 88.3303C26.2776 88.3303 26.302 88.3303 26.3509 88.4525C26.4242 88.5992 26.522 88.7214 26.6687 88.7948C26.7665 88.8437 26.8888 88.8926 26.9866 88.917C27.5 89.0392 27.9889 89.3082 28.3312 89.7238C28.6246 90.0416 28.9668 90.2617 29.358 90.4083C29.7981 90.5795 30.1648 90.824 30.5071 91.1418H30.4582C30.1404 90.824 29.7736 90.5795 29.358 90.4083C28.9424 90.2617 28.5757 90.0172 28.2823 89.6994C27.94 89.2837 27.4755 89.0148 26.9621 88.8926L26.6198 88.7703C26.4731 88.697 26.3509 88.5503 26.2776 88.4036C26.2776 88.3303 26.2287 88.2813 26.1798 88.3058C26.1798 88.4525 26.2042 88.5747 26.2531 88.697C26.3264 88.8192 26.4242 88.917 26.522 88.9903C26.6443 89.0881 26.791 89.1371 26.9377 89.2104C27.3777 89.3571 27.7933 89.626 28.0623 90.0172C28.3312 90.335 28.6735 90.6039 29.0646 90.7751C29.4803 90.9462 29.8225 91.2151 30.067 91.5574Z" fill="#87402A"/>
<path fill-rule="evenodd" clip-rule="evenodd" d="M30.2147 91.16C29.4813 90.4999 28.7479 90.5733 28.1855 89.8643C28.5278 90.5488 29.3346 90.5244 30.0681 91.3067L30.2147 91.16Z" fill="#87402A"/>
<path fill-rule="evenodd" clip-rule="evenodd" d="M32.3203 93.117L39.3858 95.733C39.3858 95.733 39.5081 95.7819 39.557 95.733C39.6059 95.6841 39.4592 95.5863 39.4592 95.5863L32.5892 92.4325L32.3203 93.117Z" fill="#F1C446"/>
<path fill-rule="evenodd" clip-rule="evenodd" d="M39.4749 95.7574H39.3771L32.2871 93.1415V93.0926L39.3771 95.7085C39.3771 95.7085 39.4749 95.7574 39.5238 95.7085C39.5727 95.6596 39.4504 95.5863 39.4504 95.5863L32.5805 92.4325L39.4749 95.5374C39.4749 95.5374 39.6216 95.6352 39.5727 95.7085C39.5727 95.733 39.5482 95.733 39.5238 95.7574C39.4993 95.7574 39.4749 95.7819 39.4749 95.7819" fill="#87402A"/>
<path fill-rule="evenodd" clip-rule="evenodd" d="M32.375 92.9248L37.2402 94.734L32.5217 92.5825L32.375 92.9248Z" fill="#87402A"/>
<path fill-rule="evenodd" clip-rule="evenodd" d="M34.4219 94.3256C35.1309 95.1324 36.0355 95.0591 36.5978 95.7681C37.0378 96.2326 37.6246 96.5504 38.2602 96.6727C38.6025 96.8682 38.5781 97.1861 38.7003 97.1372C38.8225 97.0883 38.7736 96.7216 38.358 96.4038C37.9424 96.0859 37.5512 96.2815 36.8178 95.4014C36.0844 94.5212 35.4731 94.7413 34.8619 93.91L34.4219 94.3256Z" fill="#F1C446"/>
<path fill-rule="evenodd" clip-rule="evenodd" d="M38.7003 97.1517C38.6514 97.1517 38.6025 97.1028 38.5781 97.0294C38.5292 96.8827 38.4069 96.7605 38.2602 96.6871C38.138 96.6382 38.0158 96.5893 37.918 96.5649C37.4046 96.4426 36.94 96.1737 36.5978 95.7581C36.3044 95.4403 35.9377 95.2202 35.5465 95.0735C35.9377 95.2202 36.3044 95.4647 36.5978 95.7826C36.94 96.1737 37.3801 96.4671 37.8935 96.5893C38.0158 96.6138 38.138 96.6627 38.2358 96.7116C38.3825 96.7849 38.5047 96.9072 38.5781 97.0783C38.627 97.1272 38.6514 97.1517 38.7003 97.1517C38.7492 96.9805 38.6759 96.7116 38.3336 96.4671C38.2113 96.3693 38.0647 96.296 37.918 96.2715C37.4779 96.1248 37.0623 95.8315 36.7933 95.4647C36.5244 95.1469 36.1821 94.878 35.791 94.7068C35.4243 94.5602 35.1064 94.2912 34.8619 93.9734C35.1309 94.2668 35.4731 94.5112 35.8154 94.6824C36.2066 94.8535 36.5733 95.1469 36.8178 95.4892C37.1112 95.8559 37.4779 96.1493 37.918 96.296C38.0647 96.3449 38.2113 96.4182 38.3336 96.4915C38.4558 96.5649 38.5536 96.6627 38.627 96.7849C38.7003 96.9072 38.7492 97.0294 38.7492 97.1761L38.6759 97.2739V97.1517H38.7003Z" fill="#87402A"/>
<path fill-rule="evenodd" clip-rule="evenodd" d="M34.7148 94.3168C35.4483 95.0014 36.1573 94.9036 36.7196 95.637C36.3773 94.9525 35.5705 94.9769 34.8371 94.1946L34.7148 94.3168Z" fill="#87402A"/>
<path fill-rule="evenodd" clip-rule="evenodd" d="M32.3196 92.385L25.4741 95.5388C25.4741 95.5388 25.3518 95.5877 25.3763 95.6855C25.4007 95.7833 25.5474 95.6855 25.5474 95.6855L32.6129 93.0696L32.3196 92.385Z" fill="#F1C446"/>
<path fill-rule="evenodd" clip-rule="evenodd" d="M25.4484 95.7517C25.424 95.7517 25.3995 95.7517 25.3751 95.7273C25.3506 95.7273 25.3262 95.7028 25.3262 95.6783C25.3262 95.605 25.3995 95.5317 25.4484 95.5072L32.2939 92.3534V92.4023L25.4484 95.5317C25.4484 95.5317 25.3506 95.5806 25.3506 95.6539C25.3506 95.7273 25.4973 95.6539 25.4973 95.6539L32.5628 93.0379L25.4973 95.7028L25.4484 95.7517Z" fill="#87402A"/>
<path fill-rule="evenodd" clip-rule="evenodd" d="M32.3669 92.5509L27.6484 94.7024L32.5136 92.8932L32.3669 92.5509Z" fill="#87402A"/>
<path fill-rule="evenodd" clip-rule="evenodd" d="M29.9234 93.025C28.8966 93.025 28.3098 93.6362 27.3808 93.5384C26.7451 93.5384 26.1095 93.734 25.5716 94.0763C25.2049 94.1985 24.9849 93.954 24.936 94.0763C24.8871 94.1985 25.1804 94.4186 25.6694 94.3452C26.1828 94.2719 26.3539 93.8807 27.4786 93.9785C28.6032 94.0763 28.8966 93.514 29.8989 93.6607L29.9234 93.025Z" fill="#F1C446"/>
<path fill-rule="evenodd" clip-rule="evenodd" d="M25.4763 94.3705C25.3785 94.3705 25.2807 94.3704 25.183 94.346C25.0852 94.3216 25.0118 94.2482 24.9385 94.1993V94.0771C24.9874 94.0037 25.0363 94.0771 25.1341 94.0771C25.2807 94.126 25.4519 94.126 25.5986 94.0771C25.7208 94.0282 25.8431 93.9793 25.9409 93.906C26.3809 93.6126 26.8943 93.4659 27.4322 93.5148C27.8478 93.5392 28.2879 93.4659 28.6546 93.2703C29.0702 93.0991 29.5103 93.0013 29.9748 93.0013V93.0502C29.5347 93.0502 29.0702 93.148 28.6546 93.3192C28.2634 93.4903 27.8478 93.5881 27.4077 93.5637C26.8943 93.5148 26.3809 93.6615 25.9409 93.9304C25.8431 94.0037 25.7208 94.0526 25.5986 94.1015C25.4519 94.1504 25.2563 94.1504 25.1096 94.1015C25.0118 94.1015 24.9874 94.1015 24.9874 94.1015C25.0852 94.2727 25.3052 94.3949 25.6964 94.346C25.8431 94.3216 25.9897 94.2727 26.1364 94.1993C26.552 93.9793 27.041 93.9059 27.5055 93.9793C27.9212 94.0037 28.3612 93.9548 28.7524 93.8081C29.1191 93.6614 29.5347 93.5881 29.9503 93.637C29.5347 93.637 29.1436 93.6859 28.7768 93.8326C28.3857 93.9793 27.9456 94.0526 27.5055 94.0037C27.041 93.9304 26.5765 94.0282 26.1609 94.2238C26.0142 94.2971 25.8675 94.346 25.7208 94.3949L25.4763 94.3705Z" fill="#87402A"/>
<path fill-rule="evenodd" clip-rule="evenodd" d="M29.7523 93.2146C28.75 93.2635 28.3099 93.8258 27.3809 93.728C28.1143 93.9725 28.6522 93.3857 29.7279 93.4102L29.7523 93.2146Z" fill="#87402A"/>
<path fill-rule="evenodd" clip-rule="evenodd" d="M32.5892 93.1134L39.4592 89.9596C39.4592 89.9596 39.6059 89.9107 39.557 89.8129C39.5081 89.7151 39.3858 89.8129 39.3858 89.8129L32.3203 92.4533L32.5892 93.1134Z" fill="#F1C446"/>
<path fill-rule="evenodd" clip-rule="evenodd" d="M32.6137 93.1179L39.4836 89.9641C39.4836 89.9641 39.6059 89.9152 39.557 89.8419C39.5325 89.7685 39.4103 89.8419 39.4103 89.8419L32.3203 92.4578L39.3858 89.793C39.4347 89.793 39.557 89.793 39.5814 89.8419C39.6059 89.8908 39.5081 89.9886 39.4836 90.013L32.6137 93.1179Z" fill="#87402A"/>
<path fill-rule="evenodd" clip-rule="evenodd" d="M32.5119 92.9252L37.2304 90.7493L32.3896 92.5584L32.5119 92.9252Z" fill="#87402A"/>
<path fill-rule="evenodd" clip-rule="evenodd" d="M34.9824 92.4634C36.0092 92.5123 36.596 91.8522 37.525 91.95C38.1607 91.95 38.7963 91.7544 39.3342 91.4121C39.7009 91.2899 39.9209 91.5343 39.9698 91.4121C40.0187 91.2899 39.7254 91.0698 39.212 91.1432C38.6985 91.2165 38.5518 91.6077 37.4028 91.5099C36.2782 91.4121 35.9848 91.9744 34.9824 91.8277V92.4634Z" fill="#F1C446"/>
<path fill-rule="evenodd" clip-rule="evenodd" d="M35.0802 92.4792H34.9824C35.4225 92.4792 35.887 92.3814 36.2782 92.1858C36.6693 92.0147 37.085 91.9169 37.525 91.9413C38.0384 91.9902 38.5519 91.8435 38.9919 91.5501C39.0897 91.4768 39.212 91.4279 39.3342 91.379C39.4809 91.3301 39.6765 91.3301 39.8232 91.379C39.8965 91.379 39.9454 91.4279 39.9454 91.379C39.8721 91.2079 39.6276 91.0856 39.2364 91.1345C39.0897 91.159 38.9186 91.2078 38.7963 91.2812C38.3807 91.4768 37.8918 91.5746 37.4272 91.5013C37.0116 91.4768 36.5715 91.5257 36.1804 91.6968C35.7892 91.8435 35.398 91.8924 34.9824 91.8435C35.3736 91.868 35.7892 91.7946 36.1559 91.6479C36.5471 91.5012 36.9872 91.4279 37.4272 91.4768C37.8918 91.5501 38.3563 91.4768 38.7719 91.2568C38.9186 91.1834 39.0653 91.1101 39.2364 91.0856C39.3586 91.0612 39.5053 91.0367 39.6276 91.0856C39.7498 91.1101 39.872 91.1834 39.9698 91.2812V91.4034C39.9698 91.4768 39.872 91.4034 39.7987 91.4034C39.652 91.3545 39.4809 91.3545 39.3342 91.4034C39.212 91.4523 39.1142 91.5012 39.0164 91.5501C38.5763 91.8435 38.0384 91.9902 37.5006 91.9413C37.085 91.9169 36.6693 92.0147 36.2782 92.1858C35.887 92.3814 35.4714 92.4792 35.0802 92.4792Z" fill="#87402A"/>
<path fill-rule="evenodd" clip-rule="evenodd" d="M35.1572 92.2627C36.1596 92.2138 36.5997 91.6515 37.5042 91.7493C36.7953 91.5048 36.2085 92.0916 35.1572 92.0671V92.2627Z" fill="#87402A"/>
<path fill-rule="evenodd" clip-rule="evenodd" d="M32.7863 92.583L29.657 85.7375C29.657 85.7375 29.6081 85.6153 29.5103 85.6397C29.4125 85.6886 29.5103 85.8109 29.5103 85.8109L32.1262 92.8764L32.7863 92.583Z" fill="#F1C446"/>
<path fill-rule="evenodd" clip-rule="evenodd" d="M32.1724 92.8818L29.5076 85.8163C29.4831 85.7674 29.4831 85.7185 29.5076 85.6696L29.6298 85.6207C29.6543 85.6207 29.6787 85.6451 29.6787 85.6696C29.7032 85.694 29.7032 85.7185 29.7276 85.743L32.8814 92.6129H32.8325L29.6054 85.6452H29.5565V85.7918L32.1724 92.8818Z" fill="#87402A"/>
<path fill-rule="evenodd" clip-rule="evenodd" d="M32.6387 92.6782L30.4873 87.9597L32.2965 92.8005L32.6387 92.6782Z" fill="#87402A"/>
<path fill-rule="evenodd" clip-rule="evenodd" d="M32.1542 90.2111C32.2031 89.1598 31.543 88.5975 31.6408 87.6685C31.6408 87.0084 31.4452 86.3728 31.1029 85.8349C30.9807 85.4682 31.2251 85.2482 31.1029 85.1993C30.9807 85.1504 30.7606 85.4437 30.834 85.9327C30.9318 86.4461 31.2985 86.6172 31.2007 87.7419C31.1029 88.8665 31.6652 89.1354 31.5185 90.1622L32.1542 90.2111Z" fill="#F1C446"/>
<path fill-rule="evenodd" clip-rule="evenodd" d="M32.201 90.2129H32.1521C32.1521 89.7728 32.0543 89.3327 31.8832 88.9171C31.7121 88.526 31.6143 88.1103 31.6143 87.6703C31.6632 87.1569 31.5165 86.6434 31.2476 86.2034C31.1742 86.1056 31.1253 85.9833 31.0764 85.8611C31.0275 85.69 31.052 85.5188 31.1253 85.3721C31.1253 85.2744 31.1253 85.2499 31.1253 85.2499C30.9542 85.3232 30.8319 85.5677 30.8808 85.9589C30.9053 86.1056 30.9786 86.2767 31.0275 86.399C31.2476 86.8146 31.3209 87.3035 31.2476 87.7681C31.2231 88.1837 31.272 88.6238 31.4187 89.0149C31.5654 89.4061 31.6143 89.7973 31.5654 90.2129C31.5898 89.7973 31.5165 89.4061 31.3698 89.0394C31.2231 88.6482 31.1498 88.2081 31.1987 87.7681C31.272 87.3035 31.1987 86.8391 30.9786 86.4234C30.9053 86.2767 30.8564 86.1301 30.8319 85.9589C30.8075 85.8367 30.783 85.69 30.8319 85.5677C30.8564 85.4455 30.9297 85.3233 31.0031 85.2255H31.1253C31.1987 85.2255 31.1253 85.3233 31.1253 85.4211C31.0764 85.5677 31.0764 85.7389 31.1253 85.8856C31.1253 85.9834 31.2231 86.0811 31.2965 86.2034C31.5898 86.6434 31.7121 87.1813 31.6876 87.7192C31.6632 88.1348 31.761 88.5504 31.9321 88.9416C32.1277 89.3328 32.201 89.7728 32.201 90.2129Z" fill="#87402A"/>
<path fill-rule="evenodd" clip-rule="evenodd" d="M31.9755 90.0381C31.9266 89.0357 31.3643 88.5956 31.4621 87.691C31.2176 88.4 31.8043 88.9624 31.7799 90.0381H31.9755Z" fill="#87402A"/>
<path fill-rule="evenodd" clip-rule="evenodd" d="M32.0996 92.8759L35.2534 99.7459C35.2534 99.7459 35.3023 99.8681 35.4001 99.8436C35.4979 99.8192 35.449 99.6725 35.449 99.6725L32.8086 92.5825L32.0996 92.8759Z" fill="#F1C446"/>
<path fill-rule="evenodd" clip-rule="evenodd" d="M35.3757 99.8594C35.3513 99.8594 35.3024 99.8349 35.2779 99.8349C35.2535 99.8105 35.229 99.786 35.2046 99.7616L32.0508 92.8916H32.0997L35.2535 99.7616C35.2535 99.7371 35.3024 99.8594 35.3757 99.8594C35.4246 99.8105 35.3757 99.6882 35.3757 99.6882L32.7598 92.5983L35.4246 99.6638C35.4246 99.7127 35.4246 99.8349 35.3757 99.8594Z" fill="#87402A"/>
<path fill-rule="evenodd" clip-rule="evenodd" d="M32.2871 92.7925L34.4385 97.5109L32.6294 92.6458L32.2871 92.7925Z" fill="#87402A"/>
<path fill-rule="evenodd" clip-rule="evenodd" d="M32.7321 95.2456C32.6832 96.2969 33.3433 96.8592 33.2455 97.7882C33.2455 98.4483 33.4411 99.0595 33.7834 99.6218C33.9056 99.9885 33.6367 100.184 33.7834 100.257C33.93 100.306 34.1012 100.013 34.0523 99.4996C33.9789 98.9862 33.5878 98.8395 33.6856 97.6904C33.7834 96.5414 33.221 96.2969 33.3677 95.27L32.7321 95.2456Z" fill="#F1C446"/>
<path fill-rule="evenodd" clip-rule="evenodd" d="M33.7603 100.281C33.687 100.281 33.7603 100.159 33.7603 100.11C33.8092 99.9633 33.8092 99.7922 33.7603 99.6455C33.7114 99.5233 33.6625 99.4255 33.5892 99.3032C33.2958 98.8632 33.1736 98.3253 33.198 97.8119C33.2225 97.3963 33.1247 96.9806 32.9535 96.5895C32.7824 96.1739 32.6846 95.7094 32.6602 95.2693H32.7091C32.7091 95.7094 32.8068 96.1494 32.978 96.565C33.1736 96.9562 33.2469 97.3718 33.2225 97.8119C33.198 98.3253 33.3202 98.8387 33.5892 99.3032C33.6625 99.401 33.7114 99.5233 33.7603 99.6455C33.8092 99.8166 33.8092 99.9878 33.7603 100.134C33.7603 100.208 33.7603 100.232 33.7603 100.257C33.9315 100.159 34.0537 99.9389 33.9803 99.5233C33.9559 99.3766 33.907 99.2299 33.8337 99.0832C33.6381 98.6676 33.5647 98.1786 33.6136 97.7141C33.6381 97.2985 33.5892 96.8584 33.418 96.4673C33.2714 96.1005 33.2225 95.6849 33.2714 95.2693C33.2714 95.6849 33.3203 96.0761 33.4669 96.4428C33.6136 96.834 33.687 97.274 33.6381 97.6897C33.5647 98.1542 33.6381 98.6187 33.8581 99.0343C33.9315 99.181 33.9804 99.3277 34.0292 99.4988C34.0537 99.621 34.0537 99.7677 34.0292 99.89C34.0048 100.012 33.9315 100.134 33.8581 100.257L33.7603 100.281Z" fill="#87402A"/>
<path fill-rule="evenodd" clip-rule="evenodd" d="M32.9502 95.4431C32.9991 96.4455 33.5614 96.8856 33.4636 97.8146C33.7081 97.0811 33.1213 96.5189 33.1458 95.4676L32.9502 95.4431Z" fill="#87402A"/>
<path fill-rule="evenodd" clip-rule="evenodd" d="M32.4681 89.6746C33.2749 89.6746 34.0573 89.9924 34.644 90.5791C35.2308 91.1659 35.5486 91.9238 35.5486 92.755C35.5486 93.1462 35.4753 93.5618 35.3286 93.9285C35.1819 94.2952 34.9374 94.6375 34.6685 94.9309C34.3751 95.2243 34.0573 95.4443 33.6661 95.591C33.2994 95.7377 32.8838 95.8355 32.4926 95.8355C32.077 95.8355 31.6858 95.7621 31.3191 95.6154C30.9524 95.4688 30.6101 95.2243 30.3167 94.9553C30.0233 94.662 29.8033 94.3197 29.6566 93.953C29.5099 93.5863 29.4121 93.1706 29.4121 92.7795C29.4121 92.3638 29.4855 91.9727 29.6566 91.6059C29.8033 91.2392 30.0478 90.8969 30.3167 90.6036C30.6101 90.3102 30.9524 90.0901 31.3191 89.9435C31.6613 89.7479 32.0525 89.6746 32.4681 89.6746Z" fill="#F1C446"/>
<path fill-rule="evenodd" clip-rule="evenodd" d="M32.4692 89.6752C31.6624 89.6752 30.8801 89.993 30.3178 90.5798C29.7555 91.1421 29.4132 91.9245 29.4132 92.7312C29.4132 93.538 29.731 94.3204 30.3178 94.8827C30.8801 95.445 31.6624 95.7873 32.4692 95.7873C32.8604 95.7873 33.276 95.7139 33.6427 95.5428C34.0094 95.3961 34.3517 95.1516 34.6206 94.8827C34.914 94.5893 35.1341 94.2714 35.2807 93.8803C35.4274 93.5136 35.5008 93.1224 35.5008 92.7068C35.5008 91.9 35.183 91.1176 34.6206 90.5553C34.0339 90.0175 33.276 89.6997 32.4692 89.6752ZM32.4692 95.8361C32.0536 95.8361 31.6624 95.7628 31.2713 95.5917C30.9045 95.445 30.5623 95.2005 30.2689 94.9316C29.9755 94.6382 29.7555 94.2959 29.5843 93.9292C29.4376 93.5625 29.3398 93.1469 29.3398 92.7312C29.3398 91.9 29.6821 91.1176 30.2444 90.5553C30.8312 89.9686 31.6135 89.6508 32.4448 89.6508C33.276 89.6508 34.0583 89.9686 34.6206 90.5553C35.2074 91.1421 35.5252 91.9245 35.5252 92.7312C35.5252 93.5625 35.2074 94.3448 34.6206 94.9316C34.0828 95.5183 33.276 95.8361 32.4692 95.8361Z" fill="#87402A"/>
<path fill-rule="evenodd" clip-rule="evenodd" d="M34.4 92.0646C34.2045 91.8446 33.9355 91.6979 33.6177 91.6734C33.3243 91.649 33.031 91.7223 32.7865 91.8935C32.6642 92.0891 32.5909 92.3091 32.6153 92.5291C32.6398 92.7492 32.7376 92.9692 32.8843 93.1403C32.8354 93.1403 32.8109 93.1403 32.762 93.1403C32.6398 92.9448 32.5664 92.7247 32.5664 92.4802C32.542 92.2602 32.5664 92.0157 32.6642 91.7957C32.7865 91.6734 32.9332 91.6001 33.1043 91.5268C33.2754 91.4779 33.4466 91.4534 33.5933 91.4779C33.7644 91.5023 33.9111 91.5512 34.0578 91.649C34.2045 91.7468 34.3267 91.869 34.4 92.0157" fill="#87402A"/>
<path fill-rule="evenodd" clip-rule="evenodd" d="M33.5372 91.9188C33.4394 91.9188 33.3416 91.9188 33.2438 91.9433C33.1461 91.9677 33.0727 92.041 32.9994 92.0899C32.926 92.1388 32.8527 92.1877 32.7549 92.2122C32.7549 92.2122 32.7549 92.31 32.8038 92.2855C32.9016 92.2366 32.9994 92.1633 33.0972 92.0899C33.2194 91.9921 33.3661 91.9677 33.5372 91.9677C33.9529 91.9677 34.1973 92.31 34.2462 92.2855C34.2951 92.31 34.0017 91.9188 33.5372 91.9188Z" fill="#87402A"/>
<path fill-rule="evenodd" clip-rule="evenodd" d="M34.0826 92.3062C34.0092 92.2328 33.9359 92.1595 33.8381 92.1106C33.7403 92.0617 33.6425 92.0372 33.5447 92.0372C33.4469 92.0372 33.3247 92.0617 33.2513 92.1106C33.1535 92.1595 33.0802 92.2328 33.0068 92.3062H33.1046C33.1535 92.2328 33.2024 92.1839 33.2758 92.135C33.3491 92.0861 33.4225 92.0617 33.5202 92.0617C33.5936 92.0617 33.6914 92.0617 33.7647 92.1106C33.8381 92.1351 33.9114 92.1839 33.9603 92.2573V92.3062H34.0826Z" fill="#87402A"/>
<path fill-rule="evenodd" clip-rule="evenodd" d="M33.487 92.0847C33.5359 92.0847 33.6094 92.1092 33.6339 92.1582C33.6828 92.2071 33.7073 92.2561 33.7073 92.3051C33.7073 92.354 33.6828 92.403 33.6339 92.452C33.5849 92.501 33.5359 92.501 33.487 92.501C33.438 92.501 33.3645 92.4765 33.3401 92.452C33.3156 92.4275 33.2666 92.354 33.2666 92.3051C33.2666 92.2561 33.2911 92.1827 33.3401 92.1582C33.389 92.1092 33.438 92.0847 33.487 92.0847Z" fill="#87402A"/>
<path fill-rule="evenodd" clip-rule="evenodd" d="M32.9502 92.3627C33.1213 92.485 33.2925 92.5339 33.5125 92.5339C33.7081 92.5339 33.9037 92.485 34.0748 92.3627H33.9037C33.8059 92.4605 33.6592 92.5339 33.5125 92.5339C33.3658 92.5339 33.2191 92.5094 33.0969 92.4117V92.3138L32.9502 92.3627Z" fill="#87402A"/>
<path fill-rule="evenodd" clip-rule="evenodd" d="M34.0985 92.4576C33.9519 92.5798 33.7807 92.6532 33.6096 92.7021C33.414 92.7265 33.2429 92.7021 33.0717 92.6043C32.8272 92.4576 32.8272 92.4087 32.8761 92.4087C32.925 92.4087 32.9739 92.4087 33.1695 92.5554C33.3162 92.6043 33.4873 92.6287 33.6585 92.6043C33.8052 92.5798 33.9763 92.5309 34.0985 92.4576Z" fill="#87402A"/>
<path fill-rule="evenodd" clip-rule="evenodd" d="M32.9499 93.1672C32.9743 93.1672 32.9743 93.1917 32.9988 93.1917C33.0232 93.1917 33.0232 93.2161 33.0232 93.2406C33.0232 93.265 33.0477 93.265 33.0477 93.2895C33.0477 93.3139 33.0477 93.3384 33.0477 93.3384C33.0477 93.3628 33.0232 93.3628 33.0232 93.3873C33.0232 93.4117 32.9988 93.4117 32.9743 93.4117C32.9499 93.4117 32.9499 93.4117 32.9254 93.4362C32.901 93.4362 32.901 93.4362 32.8765 93.4362C32.8032 93.4362 32.7787 93.3873 32.7787 93.3139C32.7543 93.3628 32.7054 93.4117 32.6565 93.4606C32.6076 93.4851 32.5342 93.5095 32.4854 93.5095V93.5829C32.5831 93.5829 32.6809 93.5584 32.7787 93.5095C32.8032 93.5584 32.8521 93.5828 32.9254 93.6073C32.9743 93.6073 33.0477 93.6073 33.0966 93.5829C33.1455 93.5584 33.1699 93.4851 33.1699 93.4362C33.1699 93.3873 33.1699 93.3139 33.121 93.265C33.0721 93.1917 33.0232 93.1672 32.9499 93.1672Z" fill="#87402A"/>
<path fill-rule="evenodd" clip-rule="evenodd" d="M33.2209 94.1418C33.0253 93.9951 32.9031 93.7996 32.683 93.7996C32.6097 93.7996 32.5119 93.824 32.4385 93.8729H32.3896L32.4385 93.9463C32.5119 93.9463 32.683 93.824 32.8542 93.9463C33.0253 94.0685 33.1231 94.1174 33.2209 94.1418Z" fill="#87402A"/>
<path fill-rule="evenodd" clip-rule="evenodd" d="M33.1817 94.1504C32.9617 94.077 32.6928 94.0526 32.4727 94.1015H32.4238L32.4727 94.1993C32.6439 94.1993 32.7417 94.0526 33.1817 94.1504Z" fill="#87402A"/>
<path fill-rule="evenodd" clip-rule="evenodd" d="M33.2307 94.1444C32.7173 94.0955 32.8884 94.4133 32.4239 94.4133H32.375L32.4239 94.4867C32.9373 94.4867 32.7173 94.1933 33.2307 94.1444Z" fill="#87402A"/>
<path fill-rule="evenodd" clip-rule="evenodd" d="M32.8752 94.9033C32.8752 94.8544 32.8508 94.7811 32.8508 94.7322C32.8263 94.6833 32.8019 94.6344 32.753 94.5855C32.7041 94.5366 32.6552 94.5121 32.6063 94.4877C32.5574 94.4632 32.5085 94.4633 32.4352 94.4633C32.3129 94.4633 32.2151 94.5122 32.1418 94.5855C32.0684 94.6588 32.0195 94.7811 32.0195 94.8789C32.044 94.83 32.0684 94.7811 32.0929 94.7322C32.1173 94.6833 32.1662 94.6588 32.2151 94.6099C32.264 94.5855 32.3129 94.5611 32.3863 94.5611C32.4352 94.5611 32.5085 94.5611 32.5574 94.5855C32.6307 94.61 32.7041 94.6344 32.753 94.7078C32.8019 94.7566 32.8508 94.83 32.8752 94.9033Z" fill="#87402A"/>
<path fill-rule="evenodd" clip-rule="evenodd" d="M30.5566 92.0618C30.7522 91.8418 31.0212 91.6951 31.339 91.6707C31.6324 91.6462 31.9257 91.7195 32.1702 91.8907C32.2925 92.0863 32.3658 92.3063 32.3658 92.5264C32.3658 92.7464 32.268 92.9664 32.1213 93.1376H32.2191C32.3414 92.942 32.3902 92.7219 32.4147 92.4775C32.4391 92.2574 32.4147 92.0129 32.3414 91.7929C32.2191 91.6707 32.0724 91.5973 31.9013 91.524C31.7302 91.4506 31.559 91.4506 31.3879 91.4751C31.2167 91.4995 31.0456 91.5484 30.9234 91.6462C30.7767 91.744 30.6544 91.8662 30.5811 92.0129" fill="#87402A"/>
<path fill-rule="evenodd" clip-rule="evenodd" d="M31.3625 91.9188C31.4603 91.9188 31.5581 91.9188 31.6558 91.9677C31.7536 91.9921 31.827 92.0655 31.9003 92.1144C31.9737 92.1878 32.047 92.2122 32.1448 92.2366C32.1448 92.2366 32.1448 92.3344 32.0959 92.31C31.9981 92.2611 31.9003 92.1878 31.8025 92.1144C31.6803 92.0166 31.5336 91.9922 31.3869 91.9922C30.9713 91.9922 30.7268 92.3344 30.6779 92.31C30.5801 92.31 30.8735 91.9188 31.3625 91.9188Z" fill="#87402A"/>
<path fill-rule="evenodd" clip-rule="evenodd" d="M30.834 92.3062C30.9073 92.2328 30.9807 92.1595 31.0785 92.1106C31.1763 92.0617 31.2741 92.0372 31.3963 92.0372C31.5185 92.0372 31.6163 92.0617 31.7141 92.1106C31.8119 92.1595 31.8853 92.2328 31.9586 92.3062H31.8608C31.6163 91.9394 31.054 92.0862 31.054 92.2573V92.3062H30.834Z" fill="#87402A"/>
<path fill-rule="evenodd" clip-rule="evenodd" d="M31.4098 92.0847C31.3609 92.0847 31.2874 92.1092 31.2629 92.1582C31.2384 92.2071 31.1895 92.2561 31.1895 92.3051C31.1895 92.354 31.2139 92.403 31.2629 92.452C31.3119 92.501 31.3609 92.501 31.4098 92.501C31.4588 92.501 31.5078 92.4765 31.5567 92.4275C31.6057 92.3785 31.6057 92.3296 31.6057 92.2806C31.6057 92.2316 31.5812 92.1827 31.5567 92.1337C31.5323 92.1092 31.4588 92.0847 31.4098 92.0847Z" fill="#87402A"/>
<path fill-rule="evenodd" clip-rule="evenodd" d="M31.9586 92.3627C31.7875 92.485 31.5919 92.5339 31.3963 92.5339C31.2007 92.5339 31.0051 92.485 30.834 92.3627H31.0051C31.1029 92.4605 31.2496 92.5339 31.3963 92.5339C31.543 92.5339 31.6897 92.5094 31.8119 92.4117V92.3138L31.9586 92.3627Z" fill="#87402A"/>
<path fill-rule="evenodd" clip-rule="evenodd" d="M30.8115 92.4576C30.9582 92.5798 31.1294 92.6532 31.3005 92.7021C31.4961 92.7265 31.6672 92.7021 31.8384 92.6043C32.0828 92.4576 32.0828 92.4087 32.0339 92.4087C31.985 92.4087 31.9361 92.4087 31.7406 92.5554C31.5939 92.6043 31.4227 92.6287 31.2516 92.6043C31.1049 92.5798 30.9338 92.5309 30.8115 92.4576Z" fill="#87402A"/>
<path fill-rule="evenodd" clip-rule="evenodd" d="M31.9543 93.1672C31.9299 93.1672 31.9299 93.1917 31.9054 93.1917C31.881 93.1917 31.881 93.2161 31.881 93.2406C31.881 93.265 31.881 93.265 31.881 93.2895C31.881 93.3139 31.881 93.3139 31.881 93.3384C31.881 93.3628 31.9054 93.3628 31.9054 93.3873C31.9054 93.4117 31.9299 93.4117 31.9543 93.4117C31.9788 93.4117 31.9788 93.4117 32.0032 93.4117C32.0277 93.4117 32.0277 93.4117 32.0521 93.4117C32.0766 93.4117 32.101 93.3873 32.1255 93.3628C32.1499 93.3384 32.1499 93.3139 32.1499 93.2895C32.1744 93.3384 32.2233 93.3873 32.2722 93.4117C32.3211 93.4362 32.3944 93.4606 32.4433 93.4606H32.4922L32.4433 93.5339C32.3455 93.5339 32.2477 93.5095 32.1499 93.4606C32.1255 93.4851 32.1255 93.5095 32.101 93.5095C32.0766 93.534 32.0521 93.5339 32.0277 93.5339C32.0032 93.5339 31.9788 93.5339 31.9543 93.5339C31.9299 93.5339 31.9054 93.5095 31.881 93.5095C31.8321 93.4851 31.8077 93.4362 31.7832 93.3628C31.7832 93.3139 31.7832 93.2406 31.8076 93.1917C31.8565 93.2161 31.9054 93.1672 31.9543 93.1672Z" fill="#87402A"/>
<path fill-rule="evenodd" clip-rule="evenodd" d="M31.6572 94.1418C31.8773 93.9951 31.975 93.7996 32.1951 93.7996C32.2684 93.7996 32.3662 93.824 32.4396 93.8729H32.4885L32.4396 93.9463C32.3418 93.9463 32.1951 93.824 32.0484 93.9463C31.9262 94.0196 31.8039 94.0929 31.6572 94.1418Z" fill="#87402A"/>
<path fill-rule="evenodd" clip-rule="evenodd" d="M31.7266 94.1492C31.9466 94.0514 32.1911 94.0515 32.4356 94.1004H32.4845L32.4356 94.1981C32.2644 94.1981 32.1666 94.0514 31.7266 94.1492Z" fill="#87402A"/>
<path fill-rule="evenodd" clip-rule="evenodd" d="M31.6572 94.1444C32.1706 94.0955 31.9995 94.4133 32.464 94.4133H32.5129L32.464 94.4867C31.975 94.4867 32.1951 94.1933 31.6572 94.1444Z" fill="#87402A"/>
<path fill-rule="evenodd" clip-rule="evenodd" d="M32.0195 94.9033C32.0195 94.8544 32.044 94.7811 32.044 94.7322C32.0684 94.6833 32.0929 94.6344 32.1418 94.5855C32.1907 94.5366 32.2396 94.5121 32.2885 94.4877C32.3374 94.4632 32.3863 94.4633 32.4596 94.4633C32.5085 94.4633 32.5818 94.4632 32.6307 94.4877C32.6796 94.5121 32.7285 94.5366 32.7774 94.5855C32.8263 94.6344 32.8508 94.6588 32.8752 94.7322C32.8997 94.7811 32.8997 94.83 32.8997 94.9033C32.8752 94.8544 32.8508 94.8055 32.8263 94.7566C32.8019 94.7077 32.753 94.6833 32.7041 94.6344C32.6552 94.61 32.6063 94.5855 32.5329 94.5855C32.4841 94.5855 32.4107 94.5855 32.3618 94.6099C32.2885 94.6344 32.2151 94.6588 32.1662 94.7322C32.0929 94.7566 32.044 94.83 32.0195 94.9033Z" fill="#87402A"/>
<path d="M259.901 145.658C253.691 142.162 248.63 136.906 245.354 130.549C241.907 123.411 240.147 115.612 240.171 107.69C240.196 99.7692 242.029 91.9703 245.525 84.8803C248.924 78.4016 254.131 73.0474 260.512 69.4535C267.26 65.713 274.863 63.806 282.589 63.9527C287.112 63.9771 291.61 64.6128 295.962 65.8596C300.191 67.0087 304.225 68.7445 307.966 70.9938C311.682 73.5364 313.54 76.4702 313.565 79.7707C313.613 81.5309 313.076 83.2667 312 84.6603C311.535 85.2715 310.924 85.7604 310.215 86.1027C309.506 86.445 308.748 86.5917 307.966 86.5672C306.866 86.5672 305.79 86.2983 304.812 85.8094C303.419 85.1004 302.074 84.3425 300.778 83.4868C298.187 81.8243 295.473 80.4063 292.612 79.2572C289.728 78.2304 286.672 77.7415 283.591 77.8148C275.645 77.8148 269.485 80.4552 265.108 85.7115C260.732 90.9679 258.532 98.3024 258.532 107.69C258.532 117.054 260.708 124.291 265.035 129.4C269.362 134.51 275.499 137.053 283.42 137.053C286.574 137.102 289.728 136.588 292.71 135.512C295.571 134.388 298.333 133.019 300.949 131.381C302.172 130.598 303.443 129.914 304.763 129.327C305.863 128.814 307.037 128.52 308.259 128.496C309.042 128.471 309.799 128.643 310.508 128.96C311.217 129.303 311.829 129.792 312.293 130.403C313.369 131.796 313.931 133.532 313.882 135.292C313.907 136.857 313.442 138.373 312.562 139.669C311.34 141.282 309.824 142.651 308.088 143.703C304.299 146.123 300.167 147.908 295.815 149.032C291.194 150.304 286.427 150.939 281.635 150.939C274.081 151.086 266.575 149.277 259.901 145.658Z" fill="white"/>
<path d="M337.192 145.654C330.86 142.157 325.75 136.828 322.474 130.373C319.076 123.186 317.291 115.313 317.291 107.368C317.291 99.422 319.051 91.5497 322.474 84.362C325.75 77.9321 330.884 72.6513 337.192 69.1797C344.062 65.6836 351.641 63.85 359.366 63.85C367.067 63.85 374.671 65.6836 381.541 69.1797C387.848 72.6513 392.983 77.9565 396.259 84.362C399.657 91.5497 401.442 99.422 401.442 107.368C401.442 115.338 399.681 123.186 396.259 130.373C393.007 136.828 387.873 142.157 381.541 145.654C374.671 149.15 367.092 150.983 359.366 150.983C351.641 150.983 344.037 149.15 337.192 145.654ZM377.287 129.689C381.467 124.677 383.57 117.318 383.57 107.637C383.57 97.9552 381.467 90.5962 377.262 85.5844C373.057 80.4992 367.116 77.9321 359.415 77.9321C351.714 77.9321 345.749 80.4747 341.544 85.5844C337.339 90.6696 335.236 98.0285 335.236 107.637C335.236 117.245 337.314 124.628 341.446 129.787C345.602 134.872 351.592 137.439 359.415 137.439C367.239 137.39 373.204 134.823 377.287 129.689Z" fill="white"/>
<path d="M540.33 97.7558V142.374C540.403 143.498 540.232 144.647 539.792 145.699C539.376 146.75 538.716 147.703 537.885 148.486C536.051 149.977 533.753 150.735 531.382 150.637C529.084 150.735 526.834 149.953 525.074 148.486C524.243 147.703 523.583 146.774 523.143 145.699C522.703 144.623 522.531 143.498 522.605 142.374V97.927C522.605 90.9348 521.333 85.8496 518.791 82.6469C516.248 79.4442 512.214 77.8795 506.689 77.9284C503.829 77.7817 500.968 78.2951 498.303 79.3953C495.663 80.5199 493.291 82.2068 491.409 84.3582C487.668 88.6611 485.786 94.5287 485.786 101.961V142.374C485.859 143.498 485.688 144.647 485.248 145.699C484.832 146.75 484.172 147.703 483.341 148.486C481.507 149.977 479.209 150.735 476.862 150.637C474.564 150.735 472.315 149.977 470.53 148.486C469.699 147.703 469.039 146.774 468.623 145.699C468.208 144.647 468.012 143.498 468.085 142.374V97.927C468.085 90.9348 466.814 85.8496 464.271 82.6469C461.729 79.4442 457.695 77.8795 452.17 77.9284C449.309 77.8061 446.449 78.3196 443.808 79.4197C441.168 80.5443 438.796 82.2068 436.89 84.3582C433.076 88.6611 431.169 94.5287 431.169 101.961V142.374C431.242 143.523 431.046 144.647 430.631 145.699C430.215 146.75 429.555 147.703 428.699 148.486C426.939 149.953 424.69 150.711 422.392 150.637C420.069 150.711 417.796 149.953 415.986 148.486C415.131 147.728 414.471 146.774 414.03 145.723C413.59 144.672 413.395 143.523 413.468 142.374V72.5009C413.419 71.3763 413.639 70.2272 414.104 69.2004C414.568 68.1491 415.253 67.2445 416.109 66.5111C417.869 65.0197 420.118 64.2374 422.416 64.2863C424.641 64.1885 426.792 64.9709 428.479 66.4377C429.262 67.1956 429.897 68.1247 430.289 69.1515C430.704 70.1783 430.875 71.2785 430.826 72.3786V78.7352C433.222 74.09 436.938 70.2761 441.535 67.7579C446.375 65.142 451.803 63.8462 457.304 63.944C462.976 63.724 468.599 65.0931 473.513 67.9046C477.962 70.7895 481.336 75.0679 483.072 80.0798C485.664 75.1413 489.649 71.034 494.538 68.3202C499.77 65.3376 505.711 63.8218 511.725 63.944C530.77 63.9196 540.33 75.1902 540.33 97.7558Z" fill="white"/>
<path d="M683.816 97.763V142.381C683.889 143.506 683.718 144.655 683.278 145.706C682.862 146.757 682.202 147.711 681.371 148.493C679.538 149.984 677.239 150.742 674.892 150.644C672.594 150.742 670.345 149.984 668.56 148.493C667.729 147.711 667.069 146.782 666.653 145.706C666.238 144.655 666.042 143.506 666.115 142.381V97.9341C666.115 90.942 664.844 85.8568 662.302 82.654C659.759 79.4513 655.725 77.8867 650.2 77.9356C647.339 77.7889 644.479 78.3023 641.814 79.4024C639.174 80.5271 636.802 82.214 634.92 84.3654C631.179 88.6683 629.321 94.5359 629.321 101.968V142.381C629.394 143.53 629.199 144.655 628.783 145.706C628.367 146.757 627.707 147.711 626.852 148.493C625.018 149.984 622.72 150.742 620.373 150.644C618.075 150.742 615.826 149.984 614.065 148.493C613.234 147.711 612.574 146.782 612.134 145.706C611.718 144.655 611.523 143.506 611.596 142.381V97.9341C611.596 90.942 610.325 85.8568 607.782 82.654C605.24 79.4513 601.206 77.8867 595.68 77.9356C592.82 77.8133 589.959 78.3267 587.319 79.4513C584.679 80.576 582.307 82.2384 580.4 84.3899C576.586 88.6928 574.679 94.5603 574.679 101.993V142.405C574.753 143.53 574.582 144.679 574.141 145.73C573.726 146.782 573.066 147.735 572.235 148.517C570.474 149.984 568.201 150.742 565.902 150.669C563.58 150.742 561.331 149.984 559.522 148.517C558.666 147.759 558.006 146.806 557.566 145.755C557.126 144.703 556.93 143.554 557.003 142.405V72.5325C556.954 71.4079 557.174 70.2589 557.615 69.232C558.079 68.1808 558.764 67.2762 559.619 66.5427C561.38 65.0514 563.629 64.2691 565.927 64.3179C568.152 64.2202 570.303 65.0025 571.99 66.4694C572.797 67.2273 573.408 68.1563 573.824 69.1831C574.239 70.2099 574.41 71.3101 574.362 72.4103V78.7668C576.757 74.1217 580.474 70.3077 585.045 67.7896C589.886 65.1736 595.314 63.8779 600.814 63.9757C606.486 63.7556 612.085 65.1247 617.024 67.9363C621.473 70.8212 624.847 75.0996 626.583 80.1115C629.174 75.1729 633.159 71.0656 638.049 68.3519C643.281 65.3692 649.222 63.8779 655.236 63.9757C674.306 63.9268 683.84 75.1974 683.816 97.763Z" fill="white"/>
<path d="M771.435 130.549C772.511 131.918 773.073 133.629 773 135.365C773 138.69 770.898 141.477 766.692 143.775C762.487 146.122 757.989 147.907 753.319 149.105C748.772 150.327 744.102 150.963 739.384 151.012C725.84 151.012 715.156 147.149 707.332 139.423C699.509 131.698 695.573 121.136 695.573 107.763C695.402 99.8173 697.186 91.945 700.756 84.8306C704.007 78.4007 709.068 73.0222 715.302 69.4038C721.757 65.6877 729.116 63.7807 736.572 63.903C748.038 63.903 757.084 67.4969 763.734 74.7091C770.384 81.9213 773.709 91.6517 773.734 103.9C773.734 108.496 771.631 110.77 767.426 110.77H713.249C714.422 128.495 723.126 137.37 739.335 137.37C743.149 137.443 746.938 136.881 750.557 135.658C753.979 134.387 757.329 132.896 760.556 131.184C760.898 130.964 761.876 130.475 763.465 129.742C764.712 129.082 766.081 128.715 767.499 128.642C768.257 128.642 769.015 128.813 769.675 129.155C770.36 129.473 770.971 129.937 771.435 130.549ZM720.632 82.997C716.549 87.2021 714.104 93.1674 713.273 100.844H758.478C758.136 93.0696 756.131 87.1043 752.439 82.8992C750.483 80.7722 748.063 79.1097 745.374 78.034C742.684 76.9583 739.8 76.4694 736.915 76.6405C733.907 76.4938 730.9 77.0072 728.089 78.1074C725.302 79.1831 722.735 80.87 720.632 82.997Z" fill="white"/>
<path d="M838.89 71.3401C838.988 72.3669 838.866 73.4182 838.523 74.3961C838.205 75.374 837.668 76.2786 836.983 77.061C835.076 78.5523 832.729 79.3346 830.309 79.2857L825.052 79.7991C817.693 80.4837 812.242 83.0263 808.672 87.4514C805.078 91.9254 803.171 97.524 803.318 103.245V142.386C803.391 143.536 803.22 144.685 802.805 145.76C802.389 146.836 801.729 147.789 800.873 148.572C799.088 149.99 796.839 150.723 794.565 150.625C792.267 150.723 789.994 149.99 788.16 148.572C787.28 147.814 786.595 146.86 786.155 145.785C785.715 144.709 785.52 143.56 785.617 142.386V72.5136C785.544 71.3645 785.74 70.2399 786.18 69.1642C786.62 68.1129 787.304 67.1594 788.16 66.4016C789.969 64.9347 792.243 64.1768 794.565 64.2501C796.717 64.1768 798.82 64.9347 800.433 66.4016C801.24 67.1594 801.851 68.0885 802.267 69.1153C802.682 70.1421 802.853 71.2423 802.805 72.3424V80.6059C804.932 75.8385 808.476 71.829 812.975 69.1397C817.571 66.4504 822.73 64.8613 828.035 64.4946L830.48 64.3235C836.103 63.9323 838.89 66.2793 838.89 71.3401Z" fill="white"/>
<path d="M855.374 145.658C849.14 142.162 844.079 136.906 840.828 130.549C837.405 123.411 835.645 115.612 835.669 107.69C835.694 99.7692 837.527 91.9703 840.999 84.8803C844.422 78.4016 849.629 73.0474 855.986 69.4535C862.733 65.713 870.337 63.806 878.038 63.9527C882.561 63.9771 887.059 64.6128 891.411 65.8596C895.641 67.0087 899.675 68.7445 903.415 70.9938C907.156 73.5364 909.038 76.4702 909.038 79.7707C909.087 81.5309 908.525 83.2667 907.449 84.6603C906.985 85.2715 906.373 85.7604 905.664 86.1027C904.955 86.445 904.197 86.5917 903.415 86.5672C902.315 86.5672 901.239 86.2983 900.261 85.8094C898.892 85.1004 897.548 84.3425 896.227 83.4868C893.66 81.8243 890.922 80.4063 888.086 79.2572C885.177 78.2304 882.121 77.7415 879.04 77.8148C871.119 77.8148 864.958 80.4552 860.582 85.7115C856.206 90.9679 854.005 98.3024 854.005 107.69C854.005 117.054 856.157 124.291 860.484 129.4C864.811 134.51 870.923 137.053 878.869 137.053C882.023 137.102 885.177 136.588 888.159 135.512C891.02 134.388 893.783 133.019 896.398 131.381C897.621 130.598 898.892 129.914 900.212 129.327C901.313 128.814 902.511 128.52 903.733 128.496C904.515 128.471 905.273 128.643 905.982 128.96C906.691 129.303 907.302 129.792 907.767 130.403C908.843 131.796 909.38 133.532 909.332 135.292C909.356 136.857 908.892 138.373 908.011 139.669C906.813 141.282 905.298 142.651 903.562 143.703C899.772 146.123 895.641 147.908 891.289 149.032C886.668 150.304 881.901 150.939 877.109 150.939C869.53 151.086 862.024 149.277 855.374 145.658Z" fill="white"/>
<path d="M988.509 130.549C989.609 131.919 990.171 133.63 990.098 135.366C990.098 138.691 987.995 141.502 983.79 143.776C979.585 146.123 975.087 147.908 970.417 149.106C965.87 150.328 961.2 150.964 956.482 151.013C942.913 151.013 932.229 147.15 924.406 139.424C916.582 131.698 912.67 121.137 912.646 107.739C912.475 99.7937 914.26 91.9213 917.805 84.8069C921.081 78.3771 926.117 72.9985 932.351 69.3801C938.806 65.664 946.164 63.7571 953.621 63.8793C965.087 63.8793 974.133 67.4732 980.783 74.6854C987.433 81.8976 990.758 91.628 990.782 103.877C990.782 108.473 988.655 110.746 984.45 110.746H930.322C931.471 128.471 940.175 137.346 956.433 137.346C960.247 137.419 964.036 136.857 967.654 135.635C971.077 134.363 974.426 132.872 977.654 131.161C977.996 130.941 978.974 130.452 980.539 129.718C981.761 129.058 983.106 128.691 984.475 128.594C985.257 128.594 986.015 128.765 986.724 129.107C987.433 129.425 988.044 129.914 988.509 130.549ZM937.73 82.9978C933.622 87.2028 931.153 93.1682 930.346 100.845H975.551C975.184 93.0704 973.18 87.1051 969.488 82.9C965.796 78.7193 960.638 76.6168 953.988 76.6413C950.981 76.4946 947.974 77.008 945.187 78.1081C942.399 79.1838 939.857 80.8708 937.73 82.9978Z" fill="white"/>
<path fill-rule="evenodd" clip-rule="evenodd" d="M1075.7 43.5081C1086.07 43.288 1096.33 45.635 1105.6 50.3046C1113.86 54.5586 1120.73 61.0863 1125.35 69.1542C1129.9 77.5888 1132.27 87.0013 1132.27 96.585C1132.27 106.144 1129.9 115.581 1125.35 124.016C1120.73 132.157 1113.86 138.831 1105.6 143.208C1096.38 148.048 1086.09 150.444 1075.7 150.224H1030.35V43.5325H1075.7V43.5081ZM1072.62 120.373C1080.27 120.373 1086.36 118.319 1090.91 114.212C1095.45 110.105 1097.73 104.213 1097.68 96.585C1097.68 88.9327 1095.43 83.0652 1090.91 78.9335C1086.38 74.8017 1080.3 72.7481 1072.62 72.7725H1064.48V120.398H1072.62V120.373ZM1204.1 134.089L1209.48 150.2H1245.47L1205.79 43.5081H1166.43L1126.6 150.2H1162.44L1167.82 134.089H1204.1ZM1195.84 108.931H1176.13L1185.96 79.2268L1195.84 108.931ZM1332.38 43.5081L1293.31 117.806V150.273H1259.18V117.806L1220.21 43.5081H1259.28L1276.64 81.3538L1294.02 43.5081H1332.38Z" fill="#00A8FF"/>
<path d="M199.151 41.735C199.175 42.7863 199.126 43.8376 199.004 44.8888C198.906 45.7934 198.759 46.6735 198.539 47.5537C198.344 48.4093 198.197 49.0939 198.075 49.4606C197.953 49.8274 197.757 50.5119 197.562 51.3676C197.415 51.8321 197.17 52.7122 196.804 53.8369C196.412 54.937 195.997 56.1594 195.41 57.6508C194.97 58.8732 194.457 60.0711 193.87 61.2202C190.3 56.9417 186.218 53.1279 181.695 49.9007C177.343 46.7958 172.624 44.2532 167.637 42.3462C159.007 38.9479 149.716 37.481 140.451 37.9944C136.979 38.19 133.556 38.6545 130.158 39.3635C128.667 39.6814 127.395 40.0236 126.344 40.3415C124.437 40.8304 122.823 41.4172 121.454 41.9306C120.794 42.1506 120.061 42.4685 119.156 42.8107C118.252 43.153 116.54 43.9353 114.853 44.7177C113.875 45.2066 112.409 45.9401 110.722 46.9914C110.135 47.3336 109.181 47.9204 107.935 48.7272C106.688 49.5584 105.881 50.1452 104.781 51.0009C103.876 51.6121 103.02 52.2966 102.214 53.0056C101.896 53.2257 100.942 54.0324 99.6466 55.2793C97.6663 57.064 95.8083 58.971 94.0969 61.0001C92.9234 62.3448 92.0188 63.5428 91.3587 64.4473C90.3563 65.792 89.6229 66.8677 89.1584 67.5523C88.6939 68.2368 87.9849 69.337 87.2514 70.6083C87.0314 70.9995 86.2491 72.3441 85.1978 74.4222C83.9998 76.8426 82.9486 79.3607 82.0195 81.9033C81.4572 83.4925 80.7971 85.5217 80.1126 87.9176C79.8192 89.2133 79.3302 91.1447 78.988 93.4184C78.6701 95.3254 78.4256 97.2323 78.3034 99.1393C78.3034 99.4816 78.3034 100.068 78.1812 100.753C78.0589 103.027 78.0589 104.713 78.1812 106.376C78.1567 107.207 78.2056 108.038 78.3034 108.87C78.3034 108.992 78.3034 109.334 78.4256 109.872C78.5479 110.434 78.4256 110.874 78.4256 110.972C78.5479 112.146 78.5479 112.097 78.5723 112.684C78.6212 113.246 78.6946 113.564 78.7679 114.077C78.8168 114.444 78.8902 114.786 78.988 115.153C79.1102 115.837 79.208 116.522 79.2569 117.206C79.2569 117.475 79.2569 117.329 79.6725 119.113C79.9659 120.238 79.9903 120.58 80.1859 121.24C80.2593 121.583 80.3326 121.925 80.4548 122.267C80.5771 122.707 80.6749 123.172 80.846 123.612C80.9927 124.076 81.1638 124.614 81.3105 125.201C81.3839 125.348 81.4328 125.494 81.4572 125.666C81.4572 125.666 81.4572 125.666 81.4572 125.812C77.3744 126.032 74.245 126.032 72.3381 126.008C66.7394 125.91 61.1652 125.47 55.64 124.663C56.0067 124.419 56.349 124.125 56.6912 123.832C57.5469 123.172 58.3537 122.487 59.1116 121.754C59.2827 121.632 59.4294 121.485 59.5761 121.338C60.114 120.849 61.1897 119.798 62.4366 118.38C62.6566 118.087 63.39 117.255 64.3435 116.033C65.0036 115.177 65.6148 114.297 66.1527 113.368C66.5683 112.708 66.8617 112.219 66.9839 112.023C67.1061 111.828 67.5218 111.094 67.9374 110.239L68.9398 108.161C69.4287 107.06 69.8688 105.911 70.2111 104.762C70.4555 104.102 70.6511 103.418 70.8223 102.709C71.1157 101.633 71.3112 100.802 71.3357 100.582C71.3846 100.362 71.4824 99.8483 71.5557 99.4327C71.678 98.6992 71.7757 97.9902 71.898 97.159C72.0202 96.3278 72.0202 96.0588 72.0447 95.6921C72.0936 95.3009 72.1669 94.543 72.1669 94.3963C72.1669 93.6873 72.1669 92.9539 72.1669 91.976V91.1447C72.1669 90.998 72.1669 90.8269 72.1669 90.6802C72.1669 88.8955 71.9713 87.6487 71.9713 87.6487C71.9713 87.1352 71.8246 86.304 71.6291 85.3016C71.6291 84.9104 71.5068 84.5682 71.5068 84.4704C71.3846 83.9814 71.2379 83.1257 70.9445 82.05C70.9445 81.9278 70.7489 81.2432 70.48 80.3876C70.48 80.0453 70.2844 79.7274 70.26 79.5563C70.2111 79.3607 69.9177 78.5539 69.6488 77.7716L69.1842 76.5247V76.3781C69.0864 76.158 68.9887 75.938 68.8664 75.718C68.8664 75.718 68.6708 75.2534 68.4752 74.8867C68.0596 73.9088 67.5462 72.9798 67.3751 72.6619C66.8861 71.7573 66.4705 71.1217 66.2505 70.755C65.7859 70.0215 65.4437 69.4837 65.3214 69.3125C65.1992 69.1659 64.7591 68.4813 64.0501 67.5278L63.2433 66.501C62.5099 65.5964 61.8987 64.9119 61.5075 64.594C61.1163 64.2762 60.7496 63.7628 60.0406 63.0783C59.5272 62.5648 58.9649 62.0514 58.4026 61.5869C57.7181 60.9513 56.9846 60.3645 56.2512 59.8022C55.8844 59.5333 54.8576 58.702 53.3907 57.7974L51.6794 56.7462C50.677 56.2083 49.7724 55.7438 49.1123 55.4504C49.748 54.1302 50.3103 53.0301 50.8237 52.1255C51.3126 51.2209 51.8016 50.2185 51.9972 49.9985C52.4617 49.1672 52.804 48.556 52.8773 48.4338C52.9507 48.3116 53.2929 47.7248 53.733 46.9914C53.8797 46.7713 54.1242 46.3313 54.5642 45.5978C54.7598 45.3289 55.4444 44.2532 55.9578 43.5197C57.0335 41.8328 58.1581 40.3659 58.7693 39.5347C60.2607 37.481 61.5075 36.0141 61.8742 35.5496C62.2654 35.0851 62.9989 34.205 64.1479 32.9092C65.297 31.6379 66.4949 30.3422 67.0084 29.8287C67.5218 29.3398 68.0352 28.753 69.062 27.7751C69.7466 27.115 70.3333 26.6016 70.6267 26.2593L72.5336 24.4991C74.0005 23.2278 75.1007 22.2987 75.5163 21.9809C76.2498 21.4186 76.8121 20.9541 77.2277 20.6363C78.279 19.805 79.1346 19.1938 79.2813 19.096C80.4548 18.2648 81.335 17.5802 81.7017 17.3602C82.0929 17.1402 83.6087 16.0155 85.5156 14.8665C86.4446 14.2553 87.8626 13.424 89.6474 12.3972C91.8721 11.1748 93.6324 10.3191 94.2681 9.97685C94.9282 9.63458 96.5417 8.90114 98.4976 8.0699C98.8399 7.92321 100.233 7.31201 101.871 6.67635C105.563 5.25836 108.913 4.25597 110.697 3.74256C115.538 2.39791 119.474 1.68893 121.357 1.34665C122.212 1.22441 124.29 0.882132 127.077 0.613202C132.774 -0.02245 138.544 -0.169134 144.265 0.197588C149.399 0.539862 154.508 1.22441 159.545 2.30013C162.381 2.93578 165.266 3.69367 165.486 3.76702L166.855 4.15818L167.197 4.28043C167.221 4.28043 167.246 4.25597 167.27 4.25597C167.295 4.25597 167.319 4.25598 167.344 4.28043C167.417 4.25598 167.49 4.25598 167.564 4.28043C167.686 4.28043 167.833 4.32933 167.955 4.40267C168.101 4.45157 168.273 4.50047 168.419 4.57381L169.617 5.03831L170.351 5.38059C170.766 5.52727 171.231 5.77176 171.426 5.84511C171.622 5.91845 172.478 6.30963 173.822 7.01863C174.825 7.50759 175.974 8.09434 177.538 8.92558C179.103 9.75682 179.69 10.1969 180.008 10.368L181.108 11.077C181.303 11.2237 182.037 11.7371 183.015 12.4461C183.553 12.8373 184.115 13.3018 184.922 13.8886C186.291 14.9887 187.318 15.9422 187.611 16.2111C188.418 16.969 189.2 17.7514 189.909 18.607C190.154 18.8515 190.398 19.096 190.594 19.3649C191.352 20.2206 192.061 21.1008 192.721 22.0298L193.772 23.5211C194.677 24.9391 195.508 26.4549 196.192 27.9951C196.486 28.6552 196.73 29.242 196.877 29.6087C197.219 30.4889 197.439 31.2223 197.61 31.6624C198.002 32.9092 198.246 33.8627 198.319 34.205C198.393 34.5472 198.539 35.3051 198.735 36.3564C199.004 38.2145 199.151 39.9747 199.151 41.735Z" fill="#4677B5"/>
<path d="M225.467 163.246C222.705 167.328 219.624 171.216 216.251 174.81C214.344 176.716 212.534 178.623 210.725 180.335C210.114 180.873 209.087 181.851 207.694 183.024C207.131 183.489 205.542 184.809 203.366 186.422C202.633 186.96 201.166 188.06 199.21 189.429C197.817 190.359 196.79 191.019 196.545 191.165C193.856 192.877 191.582 194.124 190.335 194.784C189.798 195.053 187.377 196.348 184.175 197.742C182.61 198.426 181.339 198.964 180.801 199.184C180.263 199.404 179.26 199.796 178.136 200.211C177.011 200.627 174.786 201.409 171.828 202.265L168.014 203.292C167.012 203.536 165.032 204.001 162.538 204.49C160.631 204.832 159.164 205.052 158.577 205.15C157.135 205.37 154.201 205.785 150.509 206.054L146.427 206.25C144.373 206.25 142.71 206.25 141.757 206.25C139.434 206.25 137.552 206.103 136.281 205.981C134.667 205.859 133.469 205.761 132.662 205.663C131.489 205.516 129.997 205.345 128.042 205.027C127.528 205.027 125.817 204.685 123.519 204.221C121.612 203.829 120.096 203.487 119.216 203.243C117.309 202.827 115.94 202.411 115.5 202.289C113.593 201.751 112.028 201.287 111.686 201.189C111.343 201.067 110.17 200.676 108.923 200.211C108.605 200.089 107.016 199.551 105.109 198.744C104.107 198.329 102.371 197.644 100.146 196.593C98.4349 195.835 98.826 195.933 96.479 194.833C95.7211 194.466 92.934 193.097 89.5357 191.165C88.6067 190.627 87.8732 190.187 87.4576 189.918C86.4308 189.307 85.1839 188.574 83.6437 187.523C82.1035 186.471 81.2233 185.86 80.3677 185.298C79.1208 184.418 78.4607 183.929 78.2162 183.684C77.9717 183.464 77.8984 183.464 76.5537 182.413L74.8179 181.019C74.5245 180.799 73.5955 180.017 72.422 178.966C71.6641 178.306 71.1018 177.792 70.515 177.328C69.9283 176.863 69.366 176.228 68.4614 175.323C67.5568 174.418 66.6767 173.538 65.9921 172.805C65.3076 172.071 64.4519 171.191 63.4984 170.115C62.5449 169.015 61.7871 168.209 61.0047 167.182C59.4645 165.275 58.6821 164.37 57.7287 163.026C56.7507 161.681 56.3596 161.119 55.5283 159.798C56.7996 159.994 58.022 160.19 59.2444 160.336C61.5181 160.654 65.8699 161.167 71.3952 161.485C73.1554 161.608 76.5048 161.779 80.7588 161.779C83.0814 161.779 87.2376 161.779 92.4695 161.436C95.9167 161.241 100.977 160.825 107.163 159.896C108.19 160.581 109.828 161.656 111.832 162.781C113.373 163.612 114.497 164.175 115.891 164.835C118.213 165.959 120.585 166.937 123.005 167.793C124.888 168.453 126.795 168.991 128.726 169.406C129.142 169.529 130.389 169.798 132.002 170.067C134.643 170.556 136.77 170.8 137.87 170.922C139.997 171.167 142.124 171.289 144.275 171.265C145.864 171.265 147.429 171.142 148.211 171.069C149.752 170.947 150.754 170.873 150.974 170.849C152.172 170.727 153.199 170.556 153.37 170.531C153.517 170.482 153.981 170.531 154.617 170.335L155.888 170.189L157.233 169.92L158.553 169.602C159.042 169.504 159.506 169.406 159.971 169.26C160.949 169.04 161.878 168.771 162.905 168.429C170.19 166.228 177.036 162.757 183.123 158.185C184.908 156.742 186.693 155.178 187.108 154.835C188.429 153.686 189.724 152.488 190.922 151.217L225.467 163.246Z" fill="#4677B5"/>
<path fill-rule="evenodd" clip-rule="evenodd" d="M222.796 52.4411C222.649 51.8054 222.405 50.9009 222.038 49.7029C222.038 49.7029 221.696 48.6027 221.011 46.818C220.889 46.5002 220.791 46.1824 220.62 45.7912C220.253 44.8622 219.936 44.2021 219.618 43.542L218.738 41.7572L218.273 40.8771L217.589 39.6547C217.295 39.1168 217.051 38.7501 216.488 37.87C215.559 36.452 215.119 35.743 214.875 35.4252C214.215 34.4717 213.652 33.7383 213.212 33.2004C212.479 32.2714 211.917 31.5868 211.672 31.2934C210.914 30.3644 210.279 29.7287 209.765 29.1664C209.252 28.6041 208.934 28.2619 208.298 27.6262C207.369 26.6727 206.611 26.0126 205.682 25.1325C204.753 24.2524 204.338 23.9345 203.678 23.3722C203.36 23.1033 202.602 22.4432 200.988 21.2452C200.084 20.5851 198.764 19.5583 196.881 18.3115C196.319 17.9203 194.681 16.8201 192.456 15.4755C190.891 14.522 189.644 13.813 189.033 13.5685C188.055 13.0307 186.442 12.1261 184.364 11.0993C183.875 10.8548 182.457 10.1213 180.55 9.1923C179.132 8.5322 178.056 8.09213 177.738 7.96989L174.804 6.79637L171.675 5.67176L169.108 4.84053L166.981 4.18042C166.981 4.18042 167.617 4.376 168.546 4.69383L169.719 5.15835L170.453 5.47617L171.553 5.96514C171.797 6.08738 172.58 6.42965 173.949 7.13864C174.927 7.62761 176.1 8.23881 177.616 9.0456C179.156 9.87684 179.767 10.3414 180.085 10.5125L181.161 11.2215C181.356 11.3437 182.09 11.8572 183.068 12.615C183.606 13.0062 184.217 13.4463 184.975 14.033C186.368 15.1332 187.371 16.0622 187.664 16.3556C188.813 17.4313 189.571 18.2626 190.011 18.7271L190.696 19.5094C191.062 19.9495 191.869 20.8785 192.798 22.1743L193.825 23.6901C194.754 25.1081 195.561 26.5994 196.27 28.1641C196.588 28.8242 196.808 29.362 196.954 29.7532C197.297 30.6578 197.541 31.3668 197.688 31.8068C198.079 33.0537 198.299 34.0316 198.372 34.3739C198.446 34.7162 198.617 35.4741 198.788 36.5253C199.057 38.2367 199.204 39.9725 199.204 41.7083C199.228 42.7841 199.155 43.8353 199.032 44.8866C198.91 45.9379 198.715 46.7936 198.568 47.5026C198.421 48.2116 198.201 49.0428 198.079 49.5318L197.59 51.4387C197.468 51.8788 197.199 52.7589 196.832 53.8835C196.465 55.0081 196.025 56.2061 195.439 57.6975C194.852 59.1888 194.241 60.5823 193.825 61.5114L192.92 63.2961L191.894 65.3497C191.16 66.7677 190.5 67.819 189.864 68.8213C189.571 69.3103 189.107 70.0927 188.495 71.0217L187.2 72.9286C186.637 73.7354 185.684 75.0801 184.364 76.7426C183.043 78.405 182.212 79.3341 181.283 80.4098L179.498 82.4145C178.667 83.368 177.591 84.6149 176.907 85.2505C175.538 86.7174 174.389 87.7442 172.115 89.7979C170.208 91.5092 168.497 93.025 166.052 95.0053C163.949 96.6923 162.238 97.8658 161.285 98.5992C159.378 99.9439 156.957 101.606 154.023 103.44C149.378 106.3 144.586 108.916 139.648 111.239C131.482 115.028 122.999 118.036 114.271 120.236C100.702 124.27 86.5954 126.275 72.4154 126.152C66.8168 126.055 61.2426 125.59 55.6929 124.783C54.006 126.03 52.2213 127.13 50.3632 128.108C49.3608 128.622 48.4562 129.062 48.3096 129.111C47.6495 129.428 46.7449 129.795 45.6447 130.211C45.2046 130.357 44.5445 130.602 43.7378 130.871C41.8552 131.433 39.9483 131.873 38.0169 132.167C36.8678 132.338 35.9388 132.435 35.3276 132.484C33.6407 132.631 32.3205 132.655 31.6848 132.655C29.729 132.631 27.7976 132.46 25.8661 132.191C23.9592 131.922 22.6634 131.604 22.2723 131.506C20.7565 131.14 19.2651 130.7 17.7983 130.162C15.2556 129.233 12.8353 128.035 10.5372 126.592C9.07027 125.688 7.99455 124.905 7.55448 124.685C7.11441 124.465 6.28317 123.732 5.15856 122.778C3.27605 121.116 1.56468 119.307 0 117.351C1.00237 120.089 2.17588 122.778 3.52053 125.37C5.37859 129.257 7.67672 132.949 10.366 136.323C12.4197 138.914 14.6933 141.335 17.1626 143.535L17.4315 143.755C20.4142 146.298 23.6169 148.571 26.9908 150.6C33.5918 154.194 40.6573 156.859 47.9917 158.473C51.7323 159.304 55.5218 159.94 59.3112 160.38C61.5849 160.673 65.9122 161.211 71.462 161.553C73.2467 161.675 76.5716 161.847 80.8012 161.871C83.1237 161.871 87.3044 161.871 92.5118 161.529C96.3257 161.284 102.218 160.795 109.308 159.622C110.921 159.353 115.664 158.595 121.825 157.153C125.297 156.37 129.844 155.246 135.589 153.461C142.117 151.285 148.498 148.694 154.684 145.711C160.722 142.948 164.243 141.041 165.465 140.308C169.083 138.279 171.822 136.494 173.386 135.516C177.2 133.047 180.061 130.969 182.603 129.111C185.146 127.252 186.931 125.908 187.64 125.297C187.982 125.028 190.402 123.145 192.651 121.287C193.483 120.578 194.363 119.845 194.363 119.82L196.074 118.353C199.595 115.151 202.92 111.728 206.025 108.11C210.156 103.44 213.726 98.3058 216.733 92.8294C219.104 88.4532 220.962 83.857 222.307 79.0651C222.967 76.5959 223.481 74.1022 223.847 71.5596C224.19 68.8703 224.361 66.181 224.312 63.4917C224.312 61.5847 224.092 59.6777 224.067 59.5555C224.043 59.4333 223.945 58.5531 223.847 57.6485C223.725 56.744 223.627 56.1083 223.383 54.9837C223.334 54.6903 223.261 54.3725 223.187 54.0791C223.138 53.908 223.016 53.2723 222.796 52.4411Z" fill="#2D67A9"/>
</svg>
